<svg width="3903" height="3257" fill="none"
    xmlns="http://www.w3.org/2000/svg">
    <g id="ground" fill="currentColor">
        <path d="M805.955 3173.83c-40.177 15.1-129.596 44.15-165.852 39.52-121.895-15.56-150.482-88.9-184.977-202.9C350.672 2665.24 214.982 2065.4 11.41 1693.32c0 0 278.283-87.71 342.31-103.13 64.026-15.43 87.103 15.42 90.639 32.77L746.171 2633.1c29.892 99.28 91.026 304.2 96.426 329.64 5.4 25.45 71.676 166.75 104.139 234.22 7.715 10.93 16.007 36.44-12.535 51.09-28.542 14.65-39.534-2.25-41.463-12.53l-24.106-82.89-62.677 21.2ZM3644.05 884.358l-131.91 34.565c-11.82 1.1-38.68 2.64-51.53 0-16.07-3.301-37.48-34.565-38.82-56.018-1.07-17.163 11.75-22.018 18.29-22.3h51.31l4.46-307.743h12.05l4.24-86.321h-53.79c-8.11 5.974-24.07 9.985-23.05-21.763 1.28-39.686 30.74-55.047 64.04-58.888 26.63-3.072 46.1 20.056 52.5 32.004l58.92 183.064v85.772l25.61 90.891c10.67 12.375 33.04 44.038 37.14 71.69 4.1 27.652-17.93 48.22-29.46 55.047ZM1363.93 2921.16l35.03 70.02c4.94 17.06 7 56.02-24.25 75.41-31.25 19.39-83.97 52.97-106.42 67.33l-180.51 82.14c-14.82 5.84-49.04 7.54-67.36-32.32s-54.33-116.25-70.046-149.47l-29.635-76.75-98.337-320.48c-4.939-12.12-8.622-39.86 16.165-53.87 24.786-14 154.018-70.47 215.533-96.95l2354.74-1094.76 12.13-336.64c.45-13.47 12.39-42.55 56.57-51.17 44.19-8.621 119.9-30.525 152.23-40.399 11.67-2.694 38.79-6.464 53.88 0 18.86 8.079 30.99 26.931 39.07 55.209 6.46 22.62 22.45 83.04 29.63 110.42l37.13 126.22-105.45 24.94-105.45 24.94-62.7 32.77 41.32 79.8-25.65 44.18-122.71 27.07 20.11 82.65-156.75 66.98 209.48 453.15-187.34 97.05-61.97-32.32-102.38 52.52c-16.61 7.18-55.77 11.58-79.48-28.28-10.87-18.29-16.5-27.82-19.05-32.23l-1667.53 772.84Z"/>
        <path d="m1440.67 2949.16-25.05-51.95 1560.36-723.17c2.31 2.52 19.38 19.63 38.09 63.61 18.72 43.98-7.79 81.09-23.38 94.15l-213.04 101.1-269.92 127.65-74.59-24.02-278.78 130.17 22.13 44.87c-33.51 14.53-104.31 43.72-119.48 44.23-15.17.5-145.81 44.44-209.24 66.35-81.12 37.91-256.65 120.31-309.75 146.6-53.1 26.28-87.02-2.11-97.35-19.59ZM823.412 2400.44l-215.161-708.17c-13.072 5.2-41.388 15.04-50.071 12.76-10.853-2.86-20.563-12.76-25.133-53.68-4.569-40.92 49.697-59.95 75.204-60.52 20.406-.46 22.344 13.51 20.763 20.55v45.68l432.416 12.56c.39-7.61.92-27.06 0-43.96-.91-16.9 12.19-21.13 18.86-21.13 2.47-.76 12.33-1.83 31.98 0s27.61 19.03 29.14 27.41v45.11c0 13.7-13.33 17.89-20 18.27h-49.12l-14.28 586.99c8.38-.38 29.36-.91 46.27 0 16.91.91 19.61 11.42 18.85 16.56.76 13.13 1.03 42.71-4 55.96-6.28 16.56-34.85 38.25-57.12 45.61-17.83 5.89-25.33-2.45-26.85-7.36l-21.71-44.53-80.542 39.4-7.688-9.54-79.767 37.77c4.548 9.44 14.694 30.01 18.892 36.72 4.199 6.72 6.648 20.98 7.347 27.28-4.198 9.79-24.35 26.02-71.37 12.59-45.341-36.09-37.085-66.1-27.289-76.59l50.379-15.74Z"/>
        <path d="m116.451 1604.55 140.783-40.34-11.263-61.92 29.095-45.04 119.196-183.88 199.913-221.41L743.1 982.851l32.63-46.615v-46.614c106.961-72.987 566.37-261.043 936.95-410.209L1638.1 248.67l26.8-22.313 386.91-137.342 364.76-26.803 290.17-25.639 184.13 72.253L3318.56 3.943l44.36 150.332 28.15-5.787c5.95-.625 23.84-2.814 47.87-6.567 30.03-4.691 60.07 34.713 58.19 61.92-1.88 27.207-25.34 45.971-31.91 52.538-5.26 5.254-70.39 18.451-102.3 24.393-5.64 238.611-16.9 723.338-16.9 753.358 0 30.02-30.66 38.78-45.99 39.41-137.65-4.07-419.91-12.01-447.69-11.26-27.78.75-35.35-27.21-35.66-41.28l18.77-817.159c-242.46-6.254-737.33-18.763-777.13-18.763-39.79 0-46.61 27.519-45.05 41.279-3.13 105.702-9.76 324.986-11.26 356.509-1.5 31.523-30.66 33.775-45.05 30.96h-138.91l-15.95 650.164c-5.63 216.4-16.9 721.25-16.9 726.15 0 61.54-38.79 92.57-58.19 100.39L1330 2276.29c-14.7 5.62-48.05 17.26-63.82 18.76-19.71 1.88-38.48-21.58-51.62-44.1-10.51-18.01 4.38-31.89 13.14-36.58l26.28-15.95-18.77-52.54-20.65-12.2 31.91-1282.494-133.27-5.629-51.62 21.578-5.64 104.138h67.58c24.03 0 32.54 26.269 33.79 39.407-.94 145.1-4.51 443.94-11.26 478.47-6.76 34.52-31.6 40.03-43.18 38.47H961.15c-113.252-2.82-347.453-9.01-378.238-11.26-30.784-2.25-46.615-27.21-50.682-39.41l-19.709-58.16-118.259 38.46c.626 4.07 3.942 17.64 12.202 39.41 8.259 21.76-9.699 37.21-19.71 42.21l-264.673 81.63-5.63-15.95Z"/>
        <path d="m2666.14 1024.3 18.21-720.983c2.43-10.115 13.6-30.588 38.86-31.559 25.25-.971 36.42 20.635 38.85 31.559l-21.85 727.053c-1.62 9.3-11.66 28.16-38.86 29.13-27.2.97-34.81-23.06-35.21-35.2ZM2120.93 255.979l452.92 14.566c31.08 1 36.43 23.074 35.21 33.986-6.88 305.467-20.88 924.409-21.85 956.459-.97 32.04-23.88 38.43-35.22 37.62-137.21-3.23-419.89-9.46-452.91-8.49-33.03.97-40.48-26.3-40.07-40.06 6.07-303.037 18.21-918.098 18.21-954.026s29.14-41.673 43.71-40.055ZM1873.92 1245.82l13.99-512.352c0-15.447 11.2-45.99 55.98-44.591 44.78 1.399 54.23 30.31 53.36 44.591l-14 512.352c0 12.82-10.67 38.29-53.35 37.59-42.69-.69-55.11-25.35-55.98-37.59ZM1928.34 1355.38l374.86 9.36c13.67-.78 41 5.86 41 38.65 0 32.78-4.68 210.38-7.02 295.08 0 12.1-8.91 40.75-44.52 58.55-35.61 17.8-69.5 29.27-82 32.79h-135.89c-9.76 0-29.75-6.56-31.62-32.79-.64-8.96-.94-14.43-1.02-17.57h-95.04c2.34 13.67 1.87 41.93-18.75 45.67-20.61 3.75-31.23-3.12-33.97-7.02v147.54c0 7.02-3.51 21.08-17.57 21.08s-18.35-14.06-18.74-21.08l11.71-522.25c.77-16.48 13.55-49.14 58.57-48.01Z"/>
        <path d="m3276.67 1376.45-1249.92 577.29c-36.17 16.71-85.52 0-90.2-53.86-3.75-43.09 35.14-64.02 55.05-69.09l223.75 8.2 162.83-81.97c1.56-102.27 5.39-315.23 8.2-348.95 2.81-33.72 27.72-40.59 39.83-39.81l233.11 8.19c-.39-47.23-.93-151.52 0-190.86.94-39.35 41-52.31 60.92-53.87 164.78 5.07 506.76 14.99 556.43 14.05 49.67-.94 62.87 33.96 63.26 51.52v96.02c0 47.78-42.17 75.34-63.26 83.14Z"/>
    </g>
</svg>