<svg width="316" height="384" viewBox="0 0 316 384" fill="none" xmlns="http://www.w3.org/2000/svg">
<path d="M199.557 9.53259L19.7217 64.1013L112.193 376.461L291.759 322.161L199.557 9.53259Z" fill="#FFFCE4" stroke="black" stroke-width="5"/>
<path d="M1.20801 67.4423L18.7031 61.194L30.5754 100.559L41.1976 136.174L55.5688 184.703L37.8651 190.535L16.8291 143.672L6.20692 108.473L1.20801 67.4423Z" fill="#C69C72"/>
<path d="M54.9439 251.768L72.6475 245.52L88.0601 294.049L100.765 338.412L112.637 378.401L94.9333 383.4L77.8545 345.702L64.733 301.755L54.9439 251.768Z" fill="#C69C72"/>
<path d="M315.291 317.792L291.756 324.665L278.009 276.762L296.546 270.513L315.291 317.792Z" fill="#C69C72"/>
<path d="M231.355 50.5718L212.819 56.1953L197.406 8.29139L220.525 1.00171L231.355 50.5718Z" fill="#C69C72"/>
<path d="M6.20692 108.473L1.20801 67.4423L18.7031 61.194L30.5754 100.559M6.20692 108.473L30.5754 100.559M6.20692 108.473L16.8291 143.672M30.5754 100.559L41.1976 136.174M16.8291 143.672L41.1976 136.174M16.8291 143.672L37.8651 190.535L55.5688 184.703L41.1976 136.174M64.733 301.755L54.9439 251.768L72.6475 245.52L88.0601 294.049M64.733 301.755L88.0601 294.049M64.733 301.755L77.8545 345.702M88.0601 294.049L100.765 338.412M77.8545 345.702L100.765 338.412M77.8545 345.702L94.9333 383.4L112.637 378.401L100.765 338.412M291.756 324.665L315.291 317.792L296.546 270.513L278.009 276.762L291.756 324.665ZM212.819 56.1953L231.355 50.5718L220.525 1.00171L197.406 8.29139L212.819 56.1953Z" stroke="black"/>
</svg>
