<svg width="336" height="432" fill="none"
    xmlns="http://www.w3.org/2000/svg">
    <g id="liter-b-front" fill="currentColor">
        <path d="M29.724.572H6.348v39.739H28.32L29.724.572ZM7.75 77.945h19.402l-.65 40.211H6.052l1.699-40.21ZM3.859 144.485H26.15l-.7 36.07-1.58 34.929H1.752l-.614-34.929 2.72-36.07ZM1.841 241.901h21.326l-.965 40.897H3.07L1.84 241.901ZM38.614 400.663v-16.412l46.601 1.492-3.51 25.714-43.091-10.794ZM122.163 421.111v-16.587l75.125 1.492v17.64l-36.86 7.372-38.265-9.917ZM237.834 415.846l-3.072-25.803h46.69v17.114l-43.618 8.689ZM323.314 290.872h-19.483V250.15h21.239l-1.756 40.722ZM328.054 223.646h-22.468l.527-35.544.439-35.017h22.642l.703 35.017-1.843 35.544ZM329.194 126.406c-7.108-.03-21.414-.071-21.765 0l1.405-40.722h19.044l1.316 40.722ZM332.003 48.736h-22.555l.79-40.02h24.398l-2.633 40.02Z"/>
        <path d="M310.633 10.835 30.505 3.909 19.543 384.367l65.602 1.27v18.213l150.205 2.894v-17.275h66.384l8.899-378.634Z" />
    </g>
</svg>