<svg width="316" height="386" viewBox="0 0 316 386" fill="none" xmlns="http://www.w3.org/2000/svg">
<path d="M199.984 11.3002L20.1494 64.7937L112.621 377.69L292.993 322.853L199.984 11.3002Z" fill="#FFFCE4" stroke="black" stroke-width="5"/>
<path d="M1.2666 67.864L19.6934 62.2755L30.8709 102.151L44.1625 145.197L58.8136 194.286L40.6886 199.874L19.6934 153.656L7.30838 109.854L1.2666 67.864Z" fill="#C69C72"/>
<path d="M58.3605 261.348L76.1834 254.854L90.9855 304.395L101.256 339.135L113.642 379.161L95.2146 384.901L78.6 346.838L67.423 312.249L58.3605 261.348Z" fill="#C69C72"/>
<path d="M314.829 319.499C307.932 321.262 293.955 324.816 293.23 324.937L281.147 285.666L300.178 280.078L314.829 319.499Z" fill="#C69C72"/>
<path d="M231.115 51.9177L212.63 57.6264L198.222 10.0538L221.057 1.62659L231.115 51.9177Z" fill="#C69C72"/>
<path d="M7.30838 109.854L1.2666 67.864L19.6934 62.2755L30.8709 102.151M7.30838 109.854L30.8709 102.151M7.30838 109.854L19.6934 153.656M30.8709 102.151L44.1625 145.197M19.6934 153.656L44.1625 145.197M19.6934 153.656L40.6886 199.874L58.8136 194.286L44.1625 145.197M67.423 312.249L58.3605 261.348L76.1834 254.854L90.9855 304.395M67.423 312.249L90.9855 304.395M67.423 312.249L78.6 346.838M90.9855 304.395L101.256 339.135M78.6 346.838L101.256 339.135M78.6 346.838L95.2146 384.901L113.642 379.161L101.256 339.135M293.23 324.937C293.955 324.816 307.932 321.262 314.829 319.499L300.178 280.078L281.147 285.666L293.23 324.937ZM212.63 57.6264L231.115 51.9177L221.057 1.62659L198.222 10.0538L212.63 57.6264Z" stroke="black"/>
</svg>
