<svg width="422" height="481" fill="none"
    xmlns="http://www.w3.org/2000/svg">
    <g id="liter-a" fill="currentColor">
        <path d="m360.91 225.139 20.524-8.48 15.116 38.836-18.189 7.743-17.451-38.099ZM357.724 160.68l-16.326-31.793-20.107 9.795 15.123 32.309 21.31-10.311ZM329.712 106.546l-19.075-35.917-16.842 8.077 16.842 38.151 19.075-10.311Z" />
        <path d="m371.378 193.842-13.654-33.506-21.481 10.311 14.435 32.48 20.7-9.285ZM408.863 378.091c-2.582-4.936-7.927-14.943-8.656-15.49l-41.457 19.59 9.339 20.956 40.774-25.056ZM272.191 461.688l-6.833-13.667 68.336-31.89 6.606 13.667-30.068 23.234-38.041 8.656ZM188.595 479.911l-7.973-15.718 41.457-17.995 11.161 17.995-44.645 15.718ZM119.356 382.157l-16.222 8.504-19.781-36.125 18.695-9.891 17.308 37.512ZM91.856 322.15l-19.36 9.831-16.885-31.119-13.389-32.989 19.962-9.831 14.957 31.663 14.715 32.445ZM33.417 244.594l18.515-10.132-17.067-36.849-17.852 8.745 16.404 38.236ZM22.467 120.044l-8.38-16.455 33.671-21.482 13.408 18.435-38.7 19.502ZM202.25 35.485l-4.723-21.483L233.94.9l7.923 16.15-39.613 18.436Z"/>
        <path d="m357.724 160.68-16.326-31.793-20.107 9.795 15.123 32.309 21.31-10.311ZM329.712 106.546l-19.075-35.917-16.842 8.077 16.842 38.151 19.075-10.311Z"/>
        <path d="m222.318 445.657-60.79 26.498L2.54 129.238l59.23-28.836-4.675-9.352L195.82 24.805l7.014 10.131L261.286 6.88l158.209 346.034-60.789 28.837 8.572 18.704-135.607 63.128-9.353-17.925Z"/>
    </g>
</svg>