<svg width="245" height="379" viewBox="0 0 245 379" fill="none" xmlns="http://www.w3.org/2000/svg">
<path d="M242.519 7.52881L11.9376 1.95898L2.46973 371.222L234.164 377.348L242.519 7.52881Z" fill="#FFD7C6" stroke="black" stroke-width="3"/>
<path d="M33.3807 186.312L29.7605 347.829L43.5252 348.185M33.3807 186.312L37.001 24.7944L51.1891 25.1594M33.3807 186.312L98.9027 188M206.316 190.768L210.215 29.25L195.607 28.8742M206.316 190.768L202.417 352.285L188.124 351.916M206.316 190.768L140.615 189.075M107.188 26.5998V14.2122H141.152V27.4735M107.188 26.5998L141.152 27.4735M107.188 26.5998L89.1671 26.1363M141.152 27.4735L158.192 27.9118M68.5549 152.323L69.8611 82.7178L174.569 86.6165L172.711 155.719M68.5549 152.323L172.711 155.719M68.5549 152.323L67.2587 221.393M172.711 155.719L170.855 224.762M170.855 224.762L168.999 293.805L65.9624 290.463L67.2587 221.393M170.855 224.762L67.2587 221.393M101.608 92.743L143.042 94.0507M101.608 92.743L89.1671 26.1363M101.608 92.743C101.762 99.3604 105.924 112.927 121.342 114.254C136.76 115.581 142.233 101.338 143.042 94.0507M143.042 94.0507L158.192 27.9118M89.1671 26.1363L51.1891 25.1594M158.192 27.9118L195.607 28.8742M96.6494 283.361H137.617M96.6494 283.361L81.3113 349.16M96.6494 283.361C97.3263 276.599 102.165 262.979 116.104 262.596C130.044 262.214 136.254 276.28 137.617 283.361M137.617 283.361L150.882 350.955M150.882 350.955L81.3113 349.16M150.882 350.955L188.124 351.916M81.3113 349.16L43.5252 348.185M43.5252 348.185V327.134C46.8916 304.125 66.1204 258.444 116.104 259.79C166.088 261.137 184.944 303.377 188.124 324.328V351.916M98.9027 188C98.8375 195.219 102.935 209.582 119.846 209.283C136.756 208.984 140.738 195.686 140.615 189.075M98.9027 188L140.615 189.075M98.9027 188C98.9027 181.064 103.091 167.305 119.846 167.754C136.6 168.203 140.673 182.155 140.615 189.075M51.1891 25.1594V52.1481C53.6221 73.3488 71.0589 116.124 121.342 117.621C171.625 119.117 191.803 77.4643 195.607 56.4506V28.8742" stroke="white" stroke-width="3"/>
</svg>
