<svg width="1484" height="1053" viewBox="0 0 1484 1053" fill="none" xmlns="http://www.w3.org/2000/svg">
    <g id="str-2">
        <path  d="M64.5986 722.753L3.88281 589.937L128.391 531.32L171.771 627.451L228.86 602.29L184.959 506.68L448.885 383.827L464.155 413.846L539.116 378.968L525.234 348.775L790.202 226.095L834.103 322.573L891.018 295.157L846.596 200.241L1112.68 77.1381L1127.37 107.487L1202.45 71.7072L1188.71 41.6774L1271.38 3.46729L1480.12 453.582L1477.17 454.97L1480.12 460.176L1433.79 481.693L1395.27 467.637L1305.73 508.589L1292.03 547.457L1244.96 568.731L1241.97 563.414L812.323 762.114L814.713 767.599L770.413 788.694L731.879 774.35L641.169 815.978L626.824 854.793L583.368 874.763L580.051 868.85L190.164 1048.76L43.0955 732.872L64.5986 722.753Z" fill="currentColor"/>
    </g>
</svg>
