<svg width="297" height="381" viewBox="0 0 297 381" fill="none" xmlns="http://www.w3.org/2000/svg">
<path d="M200.06 9.60986L20.1807 63.0669L112.907 375.702L293.04 321.992L200.06 9.60986Z" fill="#FFFCE4" stroke="black" stroke-width="5"/>
<path d="M221.241 1.28613L199.594 8.19861L213.419 55.8586L231.61 50.0376L221.241 1.28613Z" fill="#C69C72"/>
<path d="M262.534 331.086L268.537 348.913L217.239 372.197L163.212 379.656L157.937 362.374L210.145 347.094L262.534 331.086Z" fill="#C69C72"/>
<path d="M61.7076 268.873L80.0804 263.598L55.3408 179.011L36.604 184.468L42.0617 226.671L61.7076 268.873Z" fill="#C69C72"/>
<path d="M45.8816 148.268L27.145 153.725L5.67985 107.884L1.13184 65.8636L19.3227 59.8606L31.8744 100.79L45.8816 148.268Z" fill="#C69C72"/>
<path d="M217.239 372.197L268.537 348.913L262.534 331.086L210.145 347.094M217.239 372.197L210.145 347.094M217.239 372.197L163.212 379.656L157.937 362.374L210.145 347.094M5.67985 107.884L27.145 153.725L45.8816 148.268L31.8744 100.79M5.67985 107.884L31.8744 100.79M5.67985 107.884L1.13184 65.8636L19.3227 59.8606L31.8744 100.79M199.594 8.19861L221.241 1.28613L231.61 50.0376L213.419 55.8586L199.594 8.19861ZM80.0804 263.598L61.7076 268.873L42.0617 226.671L36.604 184.468L55.3408 179.011L80.0804 263.598Z" stroke="black"/>
</svg>
