<svg width="336" height="432" fill="none"
    xmlns="http://www.w3.org/2000/svg">
    <g id="liter-b-back" fill="currentColor">
        <path d="M13.194 141.093H32.25l-1.773 40.663H10.313l2.88-40.663ZM7.986 208.68h21.827v35.233l-1.551 35.455H6.656l-.775-35.455 2.105-35.233ZM6.656 305.849h21.052l-.997 40.884H8.097l-1.44-40.884ZM3.665 383.74h21.827v39.997H1.338l2.327-39.997ZM330.184 431.161h-24.486l.887-39.555h22.27l1.329 39.555ZM327.304 354.821h-19.279v-41.216h22.049l-2.77 41.216ZM332.179 287.678h-21.384v-35.787l.665-35.012h22.27l1.108 35.012-2.659 35.787ZM333.73 190.177h-21.052l.887-41.217h18.946l1.219 41.217ZM297.388 30.85v18.836l-47.088-1.33 4.099-28.586 42.989 11.08ZM213.958 10.464l1.108 18.835-76.893-1.108V10.464l38.446-9.418 37.339 9.418ZM101.166 43.924l-3.877-27.92L53.966 25.2v16.952l47.199 1.772Z"/>
        <path d="m307.128 428.573-282.25-6.984 9.679-379.425h67.282V26.973l148.19 2.77V47.9l66.278 1.646-9.179 379.026Z"/>
    </g>
</svg>