<svg width="340" height="390" fill="none"
    xmlns="http://www.w3.org/2000/svg">
    <g id="liter-b-mid" fill="currentColor">
    <path d="M34.19 1.16c-7.671.07-23.225.169-24.069 0L11.6 41.485h21.323L34.19 1.16ZM13.181 77.962h18.72l-.5 40.644H10.678l2.503-40.644ZM7.875 145.135H30l-.6 35.139-.902 35.639H6.574l-.6-35.639 1.901-35.139ZM6.574 242.742h21.224l-1.102 40.745H7.976l-1.402-40.745ZM3.27 342.852h21.625v40.244l-24.127.801 2.503-41.045ZM329.428 389.103h-24.527l1.902-39.443h21.824l.801 39.443ZM327.726 291.696h-18.921V250.15h21.524l-2.603 41.546ZM332.231 224.122h-21.924l.601-36.04.801-34.738h22.124l.801 34.738-2.403 36.04ZM333.833 126.915H312.61V85.97h19.921l1.302 40.945ZM336.736 49.13h-22.625l1.202-39.844h23.525l-2.102 39.844Z" />
    <path d="M315.324 11.35 33.527 4.216 24.386 380.54l282.243 5.573 8.695-374.763Z"/>
    </g>
</svg>