<svg width="300" height="385" viewBox="0 0 300 385" fill="none" xmlns="http://www.w3.org/2000/svg">
<path d="M96.3018 375.962L3.5625 64.409L183.935 9.57153L276.406 321.124L96.3018 375.962Z" fill="#FFFCE4" stroke="black" stroke-width="5"/>
<path d="M47.6777 51.0969L42.5312 32.4157L92.2841 7.82525L147.946 0.962891L153.474 18.8815L100.481 34.5127L47.6777 51.0969Z" fill="#C69C72"/>
<path d="M19.2752 179.959L36.4313 174.621L62.1654 259.639L43.8655 264.977L25.1844 226.471L19.2752 179.959Z" fill="#C69C72"/>
<path d="M52.4436 295.667L70.9341 289.377L85.2309 338.558L96.6683 378.398L78.9403 383.735L62.1654 345.992L52.4436 295.667Z" fill="#C69C72"/>
<path d="M298.539 317.589L275.855 323.689L262.892 275.652L280.62 270.314L298.539 317.589Z" fill="#C69C72"/>
<path d="M92.2841 7.82525L42.5312 32.4157L47.6777 51.0969L100.481 34.5127M92.2841 7.82525L100.481 34.5127M92.2841 7.82525L147.946 0.962891L153.474 18.8815L100.481 34.5127M62.1654 345.992L52.4436 295.667L70.9341 289.377L85.2309 338.558M62.1654 345.992L85.2309 338.558M62.1654 345.992L78.9403 383.735L96.6683 378.398L85.2309 338.558M36.4313 174.621L19.2752 179.959L25.1844 226.471L43.8655 264.977L62.1654 259.639L36.4313 174.621ZM275.855 323.689L298.539 317.589L280.62 270.314L262.892 275.652L275.855 323.689Z" stroke="black"/>
</svg>
