<svg viewBox="0 0 1482 1051" fill="none" xmlns="http://www.w3.org/2000/svg">
  <path
    d="M44.6071 731.617L66.1103 721.497L44.6071 674.459L4.79861 587.481L89.0968 548.403L131.502 529.268L141.473 550.821L196.161 526.347L186.47 505.424L450.668 382.224L457.919 397.936L533.556 363.29L526.808 347.377L791.889 225.814L796.522 235.684L851.814 209.801L847.786 200.333L1113.27 77.9651L1120.42 94.1802L1194.65 58.8293L1187.9 43.8224L1270.57 5.6123L1302.36 74.9067L1332.87 141.396L1366.22 214.08L1402.14 292.372L1438.31 371.201L1476.55 454.535L1396.92 491.09L1317.3 527.644L1239.04 563.571L1160.9 599.441L1147.97 605.375L1053.97 648.531L995.767 675.25L901.384 718.579L887.946 724.748L811.407 759.885L733.774 795.524L655.401 831.504L576.649 867.657L501.133 902.324L487.509 908.579L393.231 951.86L334.455 978.842L239.799 1022.3L189.209 1045.52L151.869 962.005L124.678 903.601L96.7146 843.539L68.5419 783.026L44.6071 731.617Z"
    fill="#F5F0EC" />
  <path
    d="M44.6071 674.459L4.79861 587.481L89.0968 548.403M44.6071 674.459L66.1103 721.497L44.6071 731.617L68.5419 783.026M44.6071 674.459L99.8546 648.925M51.0552 646.175L53.5091 651.819M131.053 639.304L124.345 624.499M122.137 619.673L119.683 614.029M89.0968 548.403L131.502 529.268L141.473 550.821L196.161 526.347L186.47 505.424L450.668 382.224L457.919 397.936L533.556 363.29L526.808 347.377L791.889 225.814L796.522 235.684L851.814 209.801L847.786 200.333L1113.27 77.9651L1120.42 94.1802L1194.65 58.8293L1187.9 43.8224L1270.57 5.6123L1302.36 74.9067M89.0968 548.403L91.7083 553.99M90.8353 706.89L94.5111 714.458M68.5419 783.026L126.944 755.973M68.5419 783.026L96.7146 843.539M167.378 737.594L181.432 731.617M96.7146 843.539L154.405 816.732M96.7146 843.539L124.678 903.601M124.678 903.601L182.297 877.057M124.678 903.601L151.869 962.005M151.869 962.005L189.209 1045.52L239.799 1022.3M151.869 962.005L209.325 935.654M239.799 1022.3L235.993 1014.14M239.799 1022.3L334.455 978.842M334.455 978.842L330.256 969.858M334.455 978.842L393.231 951.86M393.231 951.86L388.702 942.926M393.231 951.86L487.509 908.579M426.879 924.323L419.799 909.608M449.369 899.057L464.362 892.254M487.509 908.579L483.242 900.029M487.509 908.579L501.133 902.324M501.133 902.324L486.713 872.125M501.133 902.324L576.649 867.657M576.649 867.657L572.646 859.63M576.649 867.657L655.401 831.504M655.401 831.504L651.222 823.258M655.401 831.504L733.774 795.524M733.774 795.524L729.797 787.58M733.774 795.524L811.407 759.885M811.407 759.885L807.401 751.485M811.407 759.885L887.946 724.748M887.946 724.748L884.033 716.778M887.946 724.748L901.384 718.579M901.384 718.579L897.36 710.392M901.384 718.579L995.767 675.25M902.913 691.096L917.49 684.293M945.672 668.328L952.613 683.044M995.767 675.25L991.068 666.246M995.767 675.25L1053.97 648.531M1053.97 648.531L1049.37 639.452M1053.97 648.531L1147.97 605.375M1087.27 620.989L1080.75 606.273M1110.04 595.583L1125.17 588.92M1147.97 605.375L1143.64 596.833M1147.97 605.375L1160.9 599.441M1160.9 599.441L1156.55 591.002M1160.9 599.441L1239.04 563.571M1239.04 563.571L1235.12 555.602M1239.04 563.571L1317.3 527.644M1317.3 527.644L1313 519.229M1317.3 527.644L1396.92 491.09M1396.92 491.09L1476.55 454.535L1438.31 371.201M1396.92 491.09L1393.11 483.134M1438.31 371.201L1432.95 373.878M1438.31 371.201L1402.14 292.372M1361.18 407.058L1354.1 410.39M1282.46 442.875L1275.52 446.345M1402.14 292.372L1396.08 295.007M1402.14 292.372L1366.22 214.08M1324.93 328.173L1317.98 331.258M1366.22 214.08L1360.21 217.106M1366.22 214.08L1332.87 141.396M1289.45 249.693L1282.31 253.164M1210.58 285.559L1203.64 288.837M1132.29 322.003L1125.35 325.088M1332.87 141.396L1326.85 144.218M1332.87 141.396L1302.36 74.9067M1256.09 177.384L1248.76 180.854M1177.41 213.442L1169.89 216.913M1099.32 249.307L1091.8 252.585M1302.36 74.9067L1296.58 77.9651M1225.62 110.473L1218.29 114.137M1146.95 146.724L1139.62 150.002M1068.08 182.783L1061.14 185.868M147.561 676.589L154.274 691.356M158.839 595.5L171.781 623.503M203.142 691.356L171.781 623.503M209.586 706.89L285.036 870.986L344.376 845.21L301.146 749.354L342.228 731.617M342.228 731.617L258.722 553.99L219.789 571.335L230.529 595.5L171.781 623.503M342.228 731.617L347.01 729.696M242.749 993.684L256.791 987.366M284.524 971.744L291.018 985.961M248.717 917.331L263.636 910.486M299.619 913.119L307.517 909.608M357.542 886.439L365.44 882.929M387.03 853.967L401.072 847.824M442.32 828.867L456.362 822.724M360.174 795.518L374.567 789.199M416.342 769.891L429.155 763.924M388.258 710.038L401.774 703.719M359.823 650.008L373.865 643.339M343.5 596.474L351.047 593.139M294.528 559.965L308.219 553.99M316.645 527.493L328.58 521.701L470.404 833.255L543.723 799.15L536.955 787.58M536.955 787.58L582.265 766.479L545.045 687.727L555.031 683.641L517.357 605.796L465.157 628.265L536.955 787.58ZM536.421 570.619L454.49 608.293C446.925 594.07 440.873 563.084 477.186 546.561C506.506 533.221 529.839 556.32 536.421 570.619ZM536.421 570.619L582.492 670.705L658.068 635.073L612.223 535.441C592.856 492.849 523.62 423.825 401.61 488.461M586.728 484.661L593.19 481.667M664.587 449.042L671.206 445.89M556.31 417.835L562.614 414.841M634.168 382.216L640.945 379.221M710.451 347.069L724.163 340.607M740.869 414.053L757.733 405.857M763.722 464.172L787.048 453.14M774.53 486.46L781.07 483.266M792.324 525.242L814.986 514.292M809.815 564.329L816.811 560.983M819.092 585.774L842.818 574.367M846.316 644.176L869.433 633.225M910.802 614.062L924.337 607.674M883.578 555.052L897.266 548.816M855.897 494.672L870.042 488.589M828.065 434.749L842.362 428.057M808.902 373.61L815.746 387.754M780.309 311.709L782.895 316.88M785.48 322.051L791.868 335.739M747.61 351.709L761.754 345.017M819.396 293.611L831.571 319.961M862.893 387.754L831.571 319.961M870.498 404.94L963.728 609.195L1024.26 581.515L945.63 409.807M945.63 409.807L950.497 407.373L935.592 375.891L892.095 397.64L905.416 428.057M945.63 409.807L905.416 428.057M910.345 439.312L905.416 428.057M831.571 319.961L891.917 293.611L878.759 265.889L987.001 218.56L1041.55 335.928L973.205 367.127L960.471 339.961L886.824 373.919L865.6 326.378M992.914 431.988L1007.71 424.835M1047.68 406.293L1071.07 395.74M1046.68 360.946L1053.67 357.523M1083.19 439.519L1089.75 436.382M1099.3 456.204L1075.92 467.612M1035.28 485.58L1021.02 492.139M1047.97 551.034L1062.51 544.759M1103.15 526.221L1125.69 515.098M613.323 750.902L619.612 747.932M691.76 714.216L698.224 711.247M770.023 678.928L776.487 675.784M734.036 599.618L740.674 596.648M698.049 521.181L704.513 518.385M477.186 453.749L484.05 450.954M1242.06 462.449L1200 482.44L1163.91 402.754L1243.31 366.521L1252.62 387.344L1216.1 405.531L1242.06 462.449Z"
    stroke="black" stroke-width="7" />
</svg>