<svg width="650" height="1352" viewBox="0 0 650 1352" fill="none" xmlns="http://www.w3.org/2000/svg">
    <path id="str-9" d="M231.75 3.90039L4.02051 71.5076L36.8356 185.373L11.1369 193.28L322.289 1240.2L347.987 1233.09L381.593 1348.14L595.485 1283.69L585.206 1248.11L646.487 1230.32L622.765 1150.85L536.181 1177.74L512.459 1095.9L598.648 1070.59L574.926 991.916L552.391 998.242L526.692 916.401L549.228 908.889L526.692 829.816L438.13 853.934L413.618 779.21L504.552 749.557L480.434 671.275L457.108 677.601L429.432 590.621L453.945 583.109L429.432 505.618L345.615 531.316L320.312 451.057L408.083 425.359L383.965 346.681L359.453 353.007L335.731 270.376L359.453 261.678L335.731 185.768L249.146 211.071L227.006 129.231L312.404 103.532L287.892 25.6454L243.216 38.297L231.75 3.90039Z" fill="currentColor"/>
</svg>
