<svg viewBox="0 0 16 16" fill="none"
    xmlns="http://www.w3.org/2000/svg">
    <path d="M13.034 2.901A7.07 7.07 0 0 0 7.997.813a7.13 7.13 0 0 0-6.173 10.685l-1.011 3.69 3.776-.992c1.04.568 2.21.866 3.405.866h.003c3.924 0 7.19-3.195 7.19-7.123 0-1.903-.808-3.69-2.153-5.038Z" fill="#2CB742"/>
    <path d="M7.996 13.862a5.91 5.91 0 0 1-3.016-.824l-.215-.129-2.24.587.597-2.185-.14-.224a5.901 5.901 0 0 1-.906-3.151A5.929 5.929 0 0 1 8 2.016c1.582 0 3.068.616 4.185 1.736 1.116 1.12 1.803 2.605 1.8 4.187 0 3.267-2.725 5.923-5.988 5.923Z" fill="#fff"/>
    <path d="M11.244 9.428c-.177-.09-1.053-.52-1.216-.578-.164-.06-.283-.09-.401.09-.119.18-.46.578-.565.7-.103.118-.209.134-.385.045-1.046-.523-1.733-.934-2.423-2.118-.183-.315.183-.292.523-.972.058-.12.03-.222-.016-.312-.045-.09-.4-.965-.548-1.322-.145-.346-.292-.298-.401-.304-.103-.007-.222-.007-.34-.007a.66.66 0 0 0-.475.222c-.164.18-.623.61-.623 1.485 0 .876.639 1.723.725 1.842.09.119 1.255 1.916 3.042 2.689 1.13.488 1.572.53 2.137.446.343-.051 1.053-.43 1.2-.847.148-.417.148-.773.103-.847-.042-.08-.16-.125-.337-.212Z" fill="#2CB742"/>
</svg>