<svg viewBox="0 0 16 16"
xmlns="http://www.w3.org/2000/svg">
<g id="geo" fill="currentColor">
  <path d="M12.166 8.94c-.524 1.062-1.234 2.12-1.96 3.07A31.493 31.493 0 0 1 8 14.58a31.481 31.481 0 0 1-2.206-2.57c-.726-.95-1.436-2.008-1.96-3.07C3.304 7.867 3 6.862 3 6a5 5 0 0 1 10 0c0 .862-.305 1.867-.834 2.94zM8 16s6-5.686 6-10A6 6 0 0 0 2 6c0 4.314 6 10 6 10z"/>
  <path d="M8 8a2 2 0 1 1 0-4 2 2 0 0 1 0 4zm0 1a3 3 0 1 0 0-6 3 3 0 0 0 0 6z"/>
</g>
<path id="phone" d="M1.98899 3.69621C1.84976 2.78268 2.58414 2.04999 3.45353 2.04999H5.57689C5.66323 2.04999 5.74752 2.07632 5.81852 2.12547C5.88951 2.17462 5.94383 2.24425 5.97422 2.32507L6.79775 4.5155C6.82521 4.58806 6.83226 4.66675 6.81813 4.74303L6.40551 6.95724C6.91237 8.15009 7.75034 8.9524 9.14016 9.6715L11.328 9.247C11.4057 9.23207 11.486 9.23913 11.5598 9.26738L13.757 10.1045C13.8374 10.1351 13.9066 10.1894 13.9554 10.2602C14.0042 10.331 14.0304 10.415 14.0304 10.501V12.5301C14.0304 13.4504 13.2196 14.1967 12.2713 13.9904C10.5436 13.6143 7.34112 12.6583 5.0989 10.4161C2.95091 8.2681 2.23096 5.29998 1.98899 3.69621ZM3.45353 2.89899C3.04685 2.89899 2.77602 3.22331 2.82781 3.56971C3.06213 5.11659 3.74473 7.86227 5.69914 9.81583C7.76392 11.8806 10.766 12.7941 12.4521 13.1609C12.8223 13.2416 13.1814 12.9597 13.1814 12.5301V10.7939L11.3705 10.1036L9.15884 10.5324C9.06664 10.5504 8.97107 10.5373 8.88716 10.495C7.24858 9.6732 6.18562 8.69854 5.57094 7.16015C5.5412 7.08551 5.53325 7.00395 5.54802 6.92497L5.96149 4.70398L5.28228 2.89899H3.45353Z" fill="gray"/>

<g id="yandex-maps">
  <path d="M8 .667a6.001 6.001 0 0 0-4.244 10.241c1.087 1.087 3.644 2.659 3.795 4.31.023.247.202.449.45.449.246 0 .426-.202.448-.449.151-1.651 2.707-3.22 3.793-4.307A6.002 6.002 0 0 0 8 .667Z" fill="#F43"/>
  <path d="M8 8.72a2.053 2.053 0 1 1 0-4.106 2.053 2.053 0 0 1 0 4.105Z" fill="#fff"/>
</g>
<g id="telegram">
  <path d="M8 16A8 8 0 1 0 8 0a8 8 0 0 0 0 16Z" fill="#229ED9"/>
  <path d="M3.622 7.916a380.9 380.9 0 0 1 4.665-2.01c2.222-.924 2.683-1.085 2.984-1.09a.526.526 0 0 1 .31.093.337.337 0 0 1 .114.217c.01.062.024.204.014.315-.12 1.265-.642 4.334-.907 5.751-.112.6-.333.8-.546.82-.465.043-.818-.307-1.268-.602-.704-.461-1.102-.748-1.785-1.199-.79-.52-.278-.806.172-1.274.118-.122 2.165-1.984 2.204-2.153.005-.021.01-.1-.037-.141-.047-.042-.116-.028-.165-.017-.071.017-1.196.76-3.375 2.23-.32.22-.608.327-.867.321-.286-.006-.835-.161-1.244-.294-.501-.163-.9-.249-.864-.525.018-.145.216-.292.595-.442Z" fill="#fff"/>
</g>
<g id="whatsapp">
  <path d="M13.034 2.901A7.07 7.07 0 0 0 7.997.813a7.13 7.13 0 0 0-6.173 10.685l-1.011 3.69 3.776-.992c1.04.568 2.21.866 3.405.866h.003c3.924 0 7.19-3.195 7.19-7.123 0-1.903-.808-3.69-2.153-5.038Z" fill="#2CB742"/>
  <path d="M7.996 13.862a5.91 5.91 0 0 1-3.016-.824l-.215-.129-2.24.587.597-2.185-.14-.224a5.901 5.901 0 0 1-.906-3.151A5.929 5.929 0 0 1 8 2.016c1.582 0 3.068.616 4.185 1.736 1.116 1.12 1.803 2.605 1.8 4.187 0 3.267-2.725 5.923-5.988 5.923Z" fill="#fff"/>
  <path d="M11.244 9.428c-.177-.09-1.053-.52-1.216-.578-.164-.06-.283-.09-.401.09-.119.18-.46.578-.565.7-.103.118-.209.134-.385.045-1.046-.523-1.733-.934-2.423-2.118-.183-.315.183-.292.523-.972.058-.12.03-.222-.016-.312-.045-.09-.4-.965-.548-1.322-.145-.346-.292-.298-.401-.304-.103-.007-.222-.007-.34-.007a.66.66 0 0 0-.475.222c-.164.18-.623.61-.623 1.485 0 .876.639 1.723.725 1.842.09.119 1.255 1.916 3.042 2.689 1.13.488 1.572.53 2.137.446.343-.051 1.053-.43 1.2-.847.148-.417.148-.773.103-.847-.042-.08-.16-.125-.337-.212Z" fill="#2CB742"/>
</g>
<g id="share" fill="gray">
  <path d="M3.94695 10.025C2.84695 10.025 1.97195 9.14996 1.97195 8.04996C1.97195 6.94996 2.84695 6.07495 3.94695 6.07495C5.04695 6.07495 5.92196 6.94996 5.92196 8.04996C5.92196 9.12496 5.04695 10.025 3.94695 10.025ZM3.94695 6.79996C3.27195 6.79996 2.72195 7.34996 2.72195 8.02496C2.72195 8.69996 3.27195 9.24995 3.94695 9.24995C4.62195 9.24995 5.17196 8.69996 5.17196 8.02496C5.17196 7.37496 4.62195 6.79996 3.94695 6.79996Z" />
  <path d="M11.9719 5.99998C10.8719 5.99998 9.99695 5.12499 9.99695 4.02499C9.99695 2.92499 10.8719 2.04999 11.9719 2.04999C13.0719 2.04999 13.9469 2.92499 13.9469 4.02499C13.9469 5.12499 13.0469 5.99998 11.9719 5.99998ZM11.9719 2.79999C11.2969 2.79999 10.7469 3.34999 10.7469 4.02499C10.7469 4.69999 11.2969 5.24998 11.9719 5.24998C12.6469 5.24998 13.1969 4.69999 13.1969 4.02499C13.1969 3.34999 12.6469 2.79999 11.9719 2.79999Z"/>
  <path d="M11.9719 14.025C10.8719 14.025 9.99695 13.15 9.99695 12.05C9.99695 10.95 10.8719 10.075 11.9719 10.075C13.0719 10.075 13.9469 10.95 13.9469 12.05C13.9469 13.15 13.0469 14.025 11.9719 14.025ZM11.9719 10.825C11.2969 10.825 10.7469 11.375 10.7469 12.05C10.7469 12.725 11.2969 13.275 11.9719 13.275C12.6469 13.275 13.1969 12.725 13.1969 12.05C13.1969 11.375 12.6469 10.825 11.9719 10.825Z"/>
  <path d="M10.347 11.7L5.19696 9.12496L5.54697 8.39996L10.722 10.975L10.347 11.7Z"/>
  <path d="M5.54697 7.67496L5.19696 6.97496L10.347 4.39996L10.722 5.09996L5.54697 7.67496Z"/>
</g>
<g id="copy" fill="gray">
  <path d="M7.40988 6.88398C7.24971 6.88398 7.09609 6.94761 6.98283 7.06087C6.86957 7.17413 6.80594 7.32774 6.80594 7.48792V12.4315C6.80594 12.7652 7.07619 13.0363 7.40988 13.0363H12.3535C12.4329 13.0364 12.5116 13.0208 12.585 12.9904C12.6584 12.9601 12.7251 12.9155 12.7813 12.8594C12.8375 12.8032 12.882 12.7365 12.9124 12.663C12.9428 12.5896 12.9583 12.5109 12.9582 12.4315V7.48792C12.9582 7.40854 12.9426 7.32994 12.9122 7.25661C12.8818 7.18328 12.8372 7.11667 12.781 7.06058C12.7249 7.00448 12.6582 6.96002 12.5848 6.92971C12.5115 6.89941 12.4328 6.88387 12.3535 6.88398H7.40988ZM5.81723 7.48792C5.81723 6.60879 6.53075 5.89526 7.40988 5.89526H12.3535C13.2334 5.89526 13.9469 6.60879 13.9469 7.48792V12.4315C13.947 12.6408 13.9059 12.848 13.8259 13.0414C13.7458 13.2348 13.6284 13.4105 13.4805 13.5585C13.3325 13.7065 13.1568 13.8238 12.9634 13.9039C12.77 13.9839 12.5627 14.0251 12.3535 14.025H7.40988C7.20066 14.025 6.99349 13.9837 6.80021 13.9037C6.60693 13.8236 6.43132 13.7062 6.28342 13.5582C6.13551 13.4102 6.01822 13.2345 5.93823 13.0412C5.85824 12.8479 5.81712 12.6407 5.81723 12.4315V7.48792Z" fill="#808080"/>
  <path d="M3.56543 3.0387C3.48598 3.03859 3.40729 3.05416 3.33387 3.08452C3.26045 3.11487 3.19374 3.15941 3.13756 3.21559C3.08138 3.27177 3.03684 3.33848 3.00648 3.4119C2.97613 3.48533 2.96056 3.56402 2.96067 3.64347V8.58704C2.96067 8.66642 2.97632 8.74502 3.00672 8.81834C3.03712 8.89167 3.08168 8.95829 3.13785 9.01438C3.19402 9.07047 3.26069 9.11494 3.33406 9.14524C3.40743 9.17554 3.48605 9.19108 3.56543 9.19097H4.11417V10.1797H3.56543C3.35621 10.1798 3.14902 10.1387 2.9557 10.0587C2.76237 9.9787 2.5867 9.86141 2.43872 9.7135C2.29074 9.5656 2.17336 9.38999 2.09327 9.19671C2.01318 9.00343 1.97195 8.79625 1.97195 8.58704V3.64347C1.97185 3.43418 2.01299 3.22692 2.09303 3.03354C2.17307 2.84016 2.29044 2.66445 2.43843 2.51647C2.58642 2.36848 2.76213 2.25111 2.95551 2.17106C3.14889 2.09102 3.35614 2.04988 3.56543 2.04999H8.509C8.71822 2.04999 8.92539 2.09121 9.11867 2.1713C9.31196 2.25139 9.48757 2.36878 9.63547 2.51676C9.78337 2.66474 9.90067 2.84041 9.98066 3.03373C10.0606 3.22706 10.1018 3.43425 10.1017 3.64347V4.1922H9.11294V3.64347C9.11305 3.56409 9.09751 3.48546 9.06721 3.41209C9.0369 3.33873 8.99244 3.27205 8.93634 3.21588C8.88025 3.15971 8.81364 3.11516 8.74031 3.08475C8.66698 3.05435 8.58838 3.0387 8.509 3.0387H3.56543Z" fill="#808080"/>
</g>
<g id="arrow-up" fill="gray">
  <path d="M7.95944 2.04999C6.77523 2.04999 5.61761 2.40115 4.63297 3.05906C3.64834 3.71697 2.88091 4.65209 2.42773 5.74616C1.97455 6.84023 1.85598 8.04412 2.087 9.20558C2.31803 10.367 2.88829 11.4339 3.72565 12.2713C4.56302 13.1086 5.62989 13.6789 6.79134 13.9099C7.9528 14.1409 9.15669 14.0224 10.2508 13.5692C11.3448 13.116 12.2799 12.3486 12.9379 11.3639C13.5958 10.3793 13.9469 9.22169 13.9469 8.03748C13.9452 6.45002 13.3138 4.92808 12.1913 3.80558C11.0688 2.68308 9.5469 2.0517 7.95944 2.04999ZM7.95944 13.027C6.9726 13.027 6.00792 12.7344 5.18739 12.1862C4.36686 11.6379 3.72733 10.8586 3.34968 9.9469C2.97203 9.03518 2.87322 8.03194 3.06574 7.06406C3.25827 6.09618 3.73348 5.20712 4.43128 4.50931C5.12909 3.81151 6.01815 3.3363 6.98603 3.14378C7.95391 2.95125 8.95715 3.05006 9.86887 3.42771C10.7806 3.80536 11.5599 4.44489 12.1081 5.26542C12.6564 6.08595 12.949 7.05063 12.949 8.03748C12.9476 9.36035 12.4214 10.6286 11.486 11.564C10.5506 12.4994 9.28232 13.0256 7.95944 13.027Z"/>
  <path d="M8.31221 4.69095C8.21864 4.59741 8.09175 4.54486 7.95944 4.54486C7.82714 4.54486 7.70025 4.59741 7.60668 4.69095L5.61085 6.68678C5.5632 6.73281 5.52519 6.78786 5.49904 6.84874C5.47289 6.90961 5.45912 6.97509 5.45855 7.04134C5.45797 7.10759 5.47059 7.17329 5.49568 7.23461C5.52077 7.29593 5.55782 7.35164 5.60467 7.39849C5.65152 7.44534 5.70723 7.48239 5.76855 7.50747C5.82987 7.53256 5.89557 7.54519 5.96182 7.54461C6.02807 7.54404 6.09354 7.53027 6.15442 7.50412C6.21529 7.47797 6.27035 7.43996 6.31638 7.3923L7.46049 6.24819V11.0312C7.46049 11.1635 7.51306 11.2904 7.60663 11.384C7.7002 11.4776 7.82711 11.5302 7.95944 11.5302C8.09178 11.5302 8.21869 11.4776 8.31226 11.384C8.40583 11.2904 8.4584 11.1635 8.4584 11.0312V6.24819L9.60251 7.3923C9.69662 7.48319 9.82265 7.53348 9.95348 7.53235C10.0843 7.53121 10.2094 7.47874 10.302 7.38623C10.3945 7.29371 10.4469 7.16857 10.4481 7.03774C10.4492 6.90692 10.3989 6.78088 10.308 6.68678L8.31221 4.69095Z"/>
</g>
<g id="chat" fill="gray">
  <path d="M2 14a.42.42 0 0 1-.19-.04.5.5 0 0 1-.31-.46V4.39A2.445 2.445 0 0 1 4 2h8a2.445 2.445 0 0 1 2.5 2.39v4.72A2.445 2.445 0 0 1 12 11.5H4.705l-2.35 2.355A.5.5 0 0 1 2 14ZM4 3a1.45 1.45 0 0 0-1.5 1.39v7.905l1.645-1.65A.501.501 0 0 1 4.5 10.5H12a1.45 1.45 0 0 0 1.5-1.39V4.39A1.45 1.45 0 0 0 12 3H4Z"/>
  <path d="M8 7.5A.75.75 0 1 0 8 6a.75.75 0 0 0 0 1.5ZM10.75 7.5a.75.75 0 1 0 0-1.5.75.75 0 0 0 0 1.5ZM5.25 7.5a.75.75 0 1 0 0-1.5.75.75 0 0 0 0 1.5Z"/>
</g>
<g id="link" fill="gray">
  <path d="M11.533 8.9a.667.667 0 0 1-.466-.193.667.667 0 0 1 0-.94l1.413-1.414a1.334 1.334 0 0 0 0-1.886l-.947-.947a1.373 1.373 0 0 0-1.886 0L8.233 4.933A.667.667 0 0 1 7.293 4l1.414-1.413a2.733 2.733 0 0 1 3.773 0l.94.94a2.667 2.667 0 0 1 0 3.773L12 8.707a.667.667 0 0 1-.467.193ZM5.407 14.2a2.667 2.667 0 0 1-1.887-.78l-.94-.94a2.667 2.667 0 0 1 0-3.773L4 7.293a.667.667 0 0 1 .933.94L3.52 9.647a1.333 1.333 0 0 0 0 1.886l.947.947a1.373 1.373 0 0 0 1.886 0l1.414-1.413a.667.667 0 1 1 .94.933l-1.414 1.413a2.666 2.666 0 0 1-1.886.787Z" />
  <path d="M5.88 10.787a.666.666 0 0 1-.473-1.14l4.246-4.24a.667.667 0 1 1 .94.946l-4.246 4.24a.667.667 0 0 1-.467.194Z"/>
</g>


</svg>
