<svg viewBox="0 0 16 16"
    xmlns="http://www.w3.org/2000/svg">
    <g id="geo" fill="currentColor">
        <path d="M12.166 8.94c-.524 1.062-1.234 2.12-1.96 3.07A31.493 31.493 0 0 1 8 14.58a31.481 31.481 0 0 1-2.206-2.57c-.726-.95-1.436-2.008-1.96-3.07C3.304 7.867 3 6.862 3 6a5 5 0 0 1 10 0c0 .862-.305 1.867-.834 2.94zM8 16s6-5.686 6-10A6 6 0 0 0 2 6c0 4.314 6 10 6 10z"/>
        <path d="M8 8a2 2 0 1 1 0-4 2 2 0 0 1 0 4zm0 1a3 3 0 1 0 0-6 3 3 0 0 0 0 6z"/>
    </g>
    <path id="phone" d="M.984 2.772C.82 1.696 1.685.833 2.709.833H5.21a.5.5 0 0 1 .468.324l.97 2.58a.5.5 0 0 1 .024.268l-.486 2.608c.597 1.405 1.584 2.35 3.221 3.197l2.577-.5a.5.5 0 0 1 .273.024l2.588.986a.5.5 0 0 1 .322.467v2.39c0 1.084-.955 1.963-2.072 1.72-2.035-.443-5.807-1.569-8.448-4.21L5 10.333l-.353.354C2.117 8.157 1.269 4.662.984 2.773l.494-.075-.494.075Zm1.725-.939c-.479 0-.798.382-.737.79.276 1.822 1.08 5.056 3.382 7.357 2.432 2.432 5.968 3.508 7.954 3.94.436.095.859-.237.859-.743v-2.045l-2.133-.813-2.605.505a.499.499 0 0 1-.32-.044c-1.93-.968-3.182-2.116-3.906-3.928a.5.5 0 0 1-.027-.277l.487-2.616-.8-2.126H2.71Z" fill="currentColor"/>
    <g id="copy" fill="currentColor">
        <path d="M7.333 6.6a.733.733 0 0 0-.733.733v6c0 .405.328.734.733.734h6a.733.733 0 0 0 .734-.734v-6a.733.733 0 0 0-.734-.733h-6ZM5.4 7.333c0-1.067.866-1.933 1.933-1.933h6c1.068 0 1.934.866 1.934 1.933v6a1.933 1.933 0 0 1-1.934 1.934h-6A1.933 1.933 0 0 1 5.4 13.333v-6Z"/>
        <path d="M2.667 1.933a.733.733 0 0 0-.734.734v6a.733.733 0 0 0 .734.733h.666v1.2h-.666A1.933 1.933 0 0 1 .733 8.667v-6A1.933 1.933 0 0 1 2.667.733h6A1.933 1.933 0 0 1 10.6 2.667v.666H9.4v-.666a.733.733 0 0 0-.733-.734h-6Z"/>
    </g>
    <g id="yandex-maps">
        <path d="M8 .667a6.001 6.001 0 0 0-4.244 10.241c1.087 1.087 3.644 2.659 3.795 4.31.023.247.202.449.45.449.246 0 .426-.202.448-.449.151-1.651 2.707-3.22 3.793-4.307A6.002 6.002 0 0 0 8 .667Z" fill="#F43"/>
        <path d="M8 8.72a2.053 2.053 0 1 1 0-4.106 2.053 2.053 0 0 1 0 4.105Z" fill="#fff"/>
    </g>    
    <g id="telegram">
        <path d="M8 16A8 8 0 1 0 8 0a8 8 0 0 0 0 16Z" fill="#229ED9"/>
        <path d="M3.622 7.916a380.9 380.9 0 0 1 4.665-2.01c2.222-.924 2.683-1.085 2.984-1.09a.526.526 0 0 1 .31.093.337.337 0 0 1 .114.217c.01.062.024.204.014.315-.12 1.265-.642 4.334-.907 5.751-.112.6-.333.8-.546.82-.465.043-.818-.307-1.268-.602-.704-.461-1.102-.748-1.785-1.199-.79-.52-.278-.806.172-1.274.118-.122 2.165-1.984 2.204-2.153.005-.021.01-.1-.037-.141-.047-.042-.116-.028-.165-.017-.071.017-1.196.76-3.375 2.23-.32.22-.608.327-.867.321-.286-.006-.835-.161-1.244-.294-.501-.163-.9-.249-.864-.525.018-.145.216-.292.595-.442Z" fill="#fff"/>
    </g>    
    <g id="whatsapp">
        <path d="M13.034 2.901A7.07 7.07 0 0 0 7.997.813a7.13 7.13 0 0 0-6.173 10.685l-1.011 3.69 3.776-.992c1.04.568 2.21.866 3.405.866h.003c3.924 0 7.19-3.195 7.19-7.123 0-1.903-.808-3.69-2.153-5.038Z" fill="#2CB742"/>
        <path d="M7.996 13.862a5.91 5.91 0 0 1-3.016-.824l-.215-.129-2.24.587.597-2.185-.14-.224a5.901 5.901 0 0 1-.906-3.151A5.929 5.929 0 0 1 8 2.016c1.582 0 3.068.616 4.185 1.736 1.116 1.12 1.803 2.605 1.8 4.187 0 3.267-2.725 5.923-5.988 5.923Z" fill="#fff"/>
        <path d="M11.244 9.428c-.177-.09-1.053-.52-1.216-.578-.164-.06-.283-.09-.401.09-.119.18-.46.578-.565.7-.103.118-.209.134-.385.045-1.046-.523-1.733-.934-2.423-2.118-.183-.315.183-.292.523-.972.058-.12.03-.222-.016-.312-.045-.09-.4-.965-.548-1.322-.145-.346-.292-.298-.401-.304-.103-.007-.222-.007-.34-.007a.66.66 0 0 0-.475.222c-.164.18-.623.61-.623 1.485 0 .876.639 1.723.725 1.842.09.119 1.255 1.916 3.042 2.689 1.13.488 1.572.53 2.137.446.343-.051 1.053-.43 1.2-.847.148-.417.148-.773.103-.847-.042-.08-.16-.125-.337-.212Z" fill="#2CB742"/>
    </g>
</svg>