<svg xmlns="http://www.w3.org/2000/svg" width="128" height="128" fill="none">
  <rect width="128" height="128" fill="#D60F17" rx="22"/>
  <path fill="#fff" stroke="#fff" stroke-width="3" d="m113 54-8-19a3 3 0 0 0 1-1 3 3 0 0 0 1-2 3 3 0 0 0-1-2 3 3 0 0 0-4-1 3 3 0 0 0-2 2l-20-3a2 2 0 0 0-1-1 2 2 0 0 0-1-1 2 2 0 0 0-1 1 2 2 0 0 0-1 1l1 1-11 8a3 3 0 0 0-2-2 3 3 0 0 0-2 2l-11-8 1-1a2 2 0 0 0-1-1 2 2 0 0 0-1-1 2 2 0 0 0-1 1 2 2 0 0 0-1 1l-22 4a2 2 0 0 0 0-1 2 2 0 0 0-2 0 2 2 0 0 0-1 2l1 1-8 19a2 2 0 0 0-2 1 2 2 0 0 0 0 1 2 2 0 0 0 1 2 2 2 0 0 0 1 0l11 24-1 1a2 2 0 0 0 1 3h2a2 2 0 0 0 1-1l14 10a2 2 0 0 0 0 3l2-1 16 8-1 1 1 2a3 3 0 0 0 2 1l2-1a3 3 0 0 0 1-2 3 3 0 0 0 0-1l16-8h2v-2l13-10c1 1 3 2 4 1 1-2 0-3-1-4l12-25h1a1 1 0 0 0 0-2 1 1 0 0 0-1 0zm-1 0a1 1 0 0 0-1 1l-14 1a2 2 0 0 0-2-1l8-20a3 3 0 0 0 1 1 3 3 0 0 0 1-1zM70 75a5 5 0 0 0 0-3l22-14a2 2 0 0 0 2 1h1l4 22a2 2 0 0 0-1 1zM46 94a2 2 0 0 0-1-1l1-39a3 3 0 0 0 2 0l15 16c-2 2-2 5 0 7zm17-24L49 53a3 3 0 0 0 0-4l13-9a3 3 0 0 0 2 1l1 28a4 4 0 0 0-2 1zm4-30 24 15 1 1a3 3 0 0 0 0 1v1L69 71a4 4 0 0 0-3-2l-1-28a3 3 0 0 0 2-1zm33-8a3 3 0 0 0 2 3l-7 19a3 3 0 0 0-1 0l-1 1-14-26 1-1zm-23-3a2 2 0 0 0 1 1 2 2 0 0 0 1 0l14 25h-1L67 40a3 3 0 0 0 0-3zm-15 8a3 3 0 0 0-1 1l1 2-13 9a3 3 0 0 0-2-2l3-17a2 2 0 0 0 1-1zm-14-9a2 2 0 0 0 2 2l-3 17a4 4 0 0 0-1 0 4 4 0 0 0-2 1L26 33l1-1zm-23 6 1-1 17 16a4 4 0 0 0 0 2l-25 4a2 2 0 0 0-1-1zm-8 23a2 2 0 0 0 1-2l25-3a3 3 0 0 0 1 2L30 81a3 3 0 0 0-1 0 2 2 0 0 0-1 0zm14 27a2 2 0 0 0-1-3l15-27h1l-1 39-1 1zm16 12a2 2 0 0 0-1-2l17-17a4 4 0 0 0 2 1v2l-1 22a3 3 0 0 0-2 2zm20 8a3 3 0 0 0-2-2l1-24a4 4 0 0 0 2-1l15 17-1 2zm18-10a2 2 0 0 0-2 0L69 77a5 5 0 0 0 1-2l28 7v2zm16-13-1-1-3-13-2-8a2 2 0 0 0 2-2l11-1 4-1v1z"/>
</svg>