<svg xmlns="http://www.w3.org/2000/svg" version="1.2" baseProfile="tiny-ps" width="128" height="128" viewBox="0 0 128 128">
  <rect width="128" height="128" fill="#D60F17" rx="22"/>
  <path fill="#fff" stroke="#fff" stroke-width="4" d="M112.855 53.623a1.4 1.4 0 0 0-.349.072l-7.532-18.535a3.37 3.37 0 0 0 1.369-1.236 3.33 3.33 0 0 0 .506-1.769 3.25 3.25 0 0 0-.83-2.195 3.302 3.302 0 0 0-4.38-.477 3.27 3.27 0 0 0-1.289 1.965l-20.458-3.41v-.101a1.77 1.77 0 0 0-.461-1.359A1.79 1.79 0 0 0 78.11 26a1.8 1.8 0 0 0-1.32.578 1.77 1.77 0 0 0-.462 1.359c.01.322.105.636.277.91l-10.179 7.671a2.9 2.9 0 0 0-2.195-1.025 2.92 2.92 0 0 0-2.225 1.069L51.48 28.818c.169-.263.26-.569.262-.881a1.77 1.77 0 0 0-.461-1.359A1.79 1.79 0 0 0 49.96 26a1.8 1.8 0 0 0-1.32.578 1.77 1.77 0 0 0-.462 1.359v.087l-21.708 3.655a1.66 1.66 0 0 0-.592-.882 1.68 1.68 0 0 0-2.062.013 1.68 1.68 0 0 0-.5 2.032c.159.345.43.628.769.801l-7.837 19.749a1.6 1.6 0 0 0-.451-.087 1.74 1.74 0 0 0-1.365.58 1.72 1.72 0 0 0-.41 1.418 1.71 1.71 0 0 0 .847 1.212 1.74 1.74 0 0 0 1.48.113l11.11 24.097c-.47.259-.84.665-1.052 1.154a2.4 2.4 0 0 0 .735 2.856c.422.328.943.508 1.48.512a2.38 2.38 0 0 0 1.803-.838l13.086 9.795a1.704 1.704 0 0 0 .786 2.435c.76.322 1.674.045 2.107-.659l15.253 7.946c-.166.373-.25.777-.247 1.185 0 .766.306 1.501.852 2.043a2.92 2.92 0 0 0 2.056.846c.771 0 1.511-.304 2.056-.846a2.88 2.88 0 0 0 .852-2.043 3.1 3.1 0 0 0-.233-1.171l15.53-7.96c.568.924 1.904 1.052 2.657.285.54-.55.64-1.426.222-2.076l12.766-9.766c.881 1.029 2.529 1.078 3.491.111 1.099-1.105.834-3.03-.525-3.81l11.385-24.4q.197.077.407.087c.308-.083.58-.264.774-.517a1.44 1.44 0 0 0 0-1.754 1.46 1.46 0 0 0-.774-.517zm-.684.217a1.332 1.332 0 0 0-.683 1.127l-14.86 1.444a2.4 2.4 0 0 0-1.338-1.791l7.27-19.2a3.3 3.3 0 0 0 1.003.174 3.4 3.4 0 0 0 1.076-.203zM70.004 74.628a4.52 4.52 0 0 0-.421-3.062l22.653-13.421a2.397 2.397 0 0 0 1.977 1.04h.32l4.61 21.367a2.38 2.38 0 0 0-1.57 1.473zM46.042 93.727a1.7 1.7 0 0 0-.8-.333l.974-39.063a3.4 3.4 0 0 0 2.05-.751l14.425 16.83c-1.759 1.673-1.845 4.524-.19 6.299zM63.01 70.179l-14.424-16.83a3.492 3.492 0 0 0 .567-4.334l12.869-8.77a2.9 2.9 0 0 0 2.224 1.142l1.149 27.882a4.4 4.4 0 0 0-2.385.895zm3.68-30.092 24.252 14.85 1.193.738a2.5 2.5 0 0 0-.262 1.083c.004.37.089.734.247 1.069l-22.668 13.42a4.43 4.43 0 0 0-3.708-2.065l-1.149-27.867a2.92 2.92 0 0 0 2.094-1.243zm33.616-8.293q-.009.18 0 .361c.001.64.186 1.266.534 1.803.348.538.844.965 1.429 1.231l-7.255 19.2a2.7 2.7 0 0 0-.684-.102c-.352.002-.7.08-1.018.232L79.208 29.324c.334-.238.57-.587.67-.983zm-23.468-2.643a1.78 1.78 0 0 0 1.294.577 1.9 1.9 0 0 0 .713-.144l.247.433L92.934 54.75c-.238.164-.445.37-.61.607l-25.46-15.603a2.88 2.88 0 0 0-.131-2.961zm-14.962 7.7a2.88 2.88 0 0 0-.465 1.574c.005.509.146 1.007.407 1.445L48.95 48.625a3.48 3.48 0 0 0-2.007-1.33l2.996-17.624h.116a1.71 1.71 0 0 0 1.309-.607zm-13.522-8.48a1.77 1.77 0 0 0 1.221 1.27L46.58 47.296a4 4 0 0 0-.422 0 3.5 3.5 0 0 0-2.515 1.084l-17.318-15.27c.205-.283.321-.62.335-.968v-.13zm-23.817 5.402q.218.081.45.101c.428-.005.838-.17 1.15-.462L43.41 48.61a3.57 3.57 0 0 0-.756 2.182v.303L17.601 54.59a1.69 1.69 0 0 0-.829-1.084zm-7.75 22.74a1.73 1.73 0 0 0 .829-1.445l25.125-3.51a3.47 3.47 0 0 0 1.6 2.34L29.742 80.725a2.5 2.5 0 0 0-.989-.217 2.4 2.4 0 0 0-.843.159zM30.76 84.12a2.414 2.414 0 0 0-.713-3.323l14.599-26.842c.392.191.816.309 1.25.347L44.88 93.366c-.423.024-.819.21-1.105.52zm15.82 11.557a1.66 1.66 0 0 0-.276-1.69l16.503-16.975a4.3 4.3 0 0 0 2.559 1.127l-.073 1.647-1.032 22.45a2.92 2.92 0 0 0-2.428 1.444zm20.225 7.946a2.9 2.9 0 0 0-2.18-1.445l1.105-23.996a4.38 4.38 0 0 0 2.718-.982L82.64 93.943c-.433.476-.585 1.18-.35 1.777zm18.321-9.737a1.637 1.637 0 0 0-2.166-.217L68.754 76.911a4.5 4.5 0 0 0 1.207-1.936l27.626 7.411c-.032.612.046 1.225.393 1.748zm15.616-13.32c-.388-.148-.783-.159-1.192-.159l-2.908-13.435-1.701-7.931c.499-.15.935-.456 1.245-.873.309-.416.474-.921.47-1.439l10.848-1.026 4.027-.375c.086.34.292.638.582.838z"/>
</svg>
