<svg width="88" height="32" viewBox="0 0 88 32" fill="none" xmlns="http://www.w3.org/2000/svg">
<path d="M64.0171 31.328V26.708L75.8971 15.488C76.8358 14.6373 77.5251 13.8747 77.9651 13.2C78.4051 12.5253 78.6985 11.9093 78.8451 11.352C79.0211 10.7947 79.1091 10.2813 79.1091 9.812C79.1091 8.58 78.6838 7.64133 77.8331 6.996C77.0118 6.32133 75.7945 5.984 74.1811 5.984C72.8905 5.984 71.6878 6.23333 70.5731 6.732C69.4878 7.23067 68.5638 8.008 67.8011 9.064L62.6091 5.72C63.7825 3.96 65.4251 2.56667 67.5371 1.54C69.6491 0.513333 72.0838 0 74.8411 0C77.1291 0 79.1238 0.381334 80.8251 1.144C82.5558 1.87733 83.8905 2.91867 84.8291 4.268C85.7971 5.61733 86.2811 7.23067 86.2811 9.108C86.2811 10.1053 86.1491 11.1027 85.8851 12.1C85.6505 13.068 85.1518 14.0947 84.3891 15.18C83.6558 16.2653 82.5705 17.4827 81.1331 18.832L71.2771 28.116L69.9131 25.52H87.2931V31.328H64.0171Z" fill="#ED1C24"/>
<path d="M34.2054 31.3281V0.528076H47.5374C50.2948 0.528076 52.6708 0.982744 54.6654 1.89208C56.6601 2.77208 58.2001 4.04808 59.2854 5.72008C60.3708 7.39208 60.9134 9.38674 60.9134 11.7041C60.9134 13.9921 60.3708 15.9721 59.2854 17.6441C58.2001 19.3161 56.6601 20.6067 54.6654 21.5161C52.6708 22.3961 50.2948 22.8361 47.5374 22.8361H38.1654L41.3334 19.6241V31.3281H34.2054ZM41.3334 20.4161L38.1654 17.0281H47.1414C49.3414 17.0281 50.9841 16.5587 52.0694 15.6201C53.1548 14.6814 53.6974 13.3761 53.6974 11.7041C53.6974 10.0027 53.1548 8.68275 52.0694 7.74408C50.9841 6.80541 49.3414 6.33608 47.1414 6.33608H38.1654L41.3334 2.94808V20.4161Z" fill="#ED1C24"/>
<path d="M16.676 31.856C14.3 31.856 12.0853 31.4747 10.032 30.712C8.008 29.92 6.248 28.8053 4.752 27.368C3.256 25.9307 2.08267 24.244 1.232 22.308C0.410667 20.372 0 18.2453 0 15.928C0 13.6107 0.410667 11.484 1.232 9.548C2.08267 7.612 3.256 5.92533 4.752 4.488C6.27733 3.05067 8.052 1.95067 10.076 1.188C12.1 0.395999 14.3147 0 16.72 0C19.3893 0 21.7947 0.469334 23.936 1.408C26.1067 2.31733 27.9253 3.66667 29.392 5.456L24.816 9.68C23.76 8.47733 22.5867 7.58267 21.296 6.996C20.0053 6.38 18.5973 6.072 17.072 6.072C15.6347 6.072 14.3147 6.30667 13.112 6.776C11.9093 7.24533 10.868 7.92 9.988 8.8C9.108 9.68 8.41867 10.7213 7.92 11.924C7.45067 13.1267 7.216 14.4613 7.216 15.928C7.216 17.3947 7.45067 18.7293 7.92 19.932C8.41867 21.1347 9.108 22.176 9.988 23.056C10.868 23.936 11.9093 24.6107 13.112 25.08C14.3147 25.5493 15.6347 25.784 17.072 25.784C18.5973 25.784 20.0053 25.4907 21.296 24.904C22.5867 24.288 23.76 23.364 24.816 22.132L29.392 26.356C27.9253 28.1453 26.1067 29.5093 23.936 30.448C21.7947 31.3867 19.3747 31.856 16.676 31.856Z" fill="#ED1C24"/>
</svg>
