<svg xmlns="http://www.w3.org/2000/svg" width="476" height="38" fill="none"><path fill="#ED1C24" d="M10 30.7C3.8 28.3 0 22.4 0 15.9 0 6.7 7.7-.1 16.7 0c4.8-.2 9.5 1.8 12.7 5.4l-4.6 4.3A10 10 0 0 0 21.3 7a9.8 9.8 0 0 0-14 8.9 10 10 0 0 0 14.1 9 9.3 9.3 0 0 0 3.5-2.8l4.6 4.3a14.3 14.3 0 0 1-5.5 4c-4.4 2-9.5 2-14 .3Zm30.6-17.8h14.8v5.6H40.6v-5.6Zm.5 12.7H58v5.7H34V.5h23.3v5.7H41.1v19.4Zm22.5 5.7V.5H77c2.7 0 5 .5 7 1.5 3.9 1.6 6.5 5.6 6.3 9.8 0 2.3-.6 4.3-1.7 6-2.5 4-7.4 5.1-11.7 5.1h-6.2v8.5h-7.2l.1-.1ZM70.8 17h5.8c3.5 0 6.5-1.5 6.5-5.3.2-3.8-3.3-5.4-6.6-5.4h-5.7V17ZM114 28.2V6.3h-10.6l-.1 4.5c-.2 3.4-.6 6.8-1.1 10.1-.4 1.8-1.3 4.8-3.2 5.5l-7.6-.9c1 0 2-.3 2.6-1a8 8 0 0 0 1.7-3.3c.7-3.6 1-7.3 1.3-11l.3-9.7H121v27.7h-7Zm-23.6 9.5V25.5h35v12.2h-6.7v-6.4H97v6.4h-6.6Zm39.7-6.4V.5h7.1v25h13.7V.5h7.1v30.8h-27.9Zm25.8 6.5v-6.5l-5-5.8h11.5v12.3h-6.5ZM173.7 13h14.8v5.6h-14.8V13Zm.5 12.7H191v5.7h-24V.5h23.3v5.7h-16.2v19.4l.1.1Zm34.8 5.7V.5h13.3c2.8 0 5.2.5 7.2 1.4 4 1.8 6.2 5.5 6.2 9.8 0 2.3-.5 4.3-1.6 6-2.7 4-7.3 5.1-11.8 5.1h-6.2v8.5H209v.1Zm7.1-14.4h5.9c3.4 0 6.5-1.5 6.5-5.3.2-3.7-3.3-5.6-6.6-5.4h-5.8V17Zm33.3 13.8a15.8 15.8 0 0 1-9.6-19.5C242 4.3 248.8 0 256 0c5.5 0 10.9 2.4 14 7a15.8 15.8 0 0 1-7.3 23.7c-4.3 1.7-9 1.7-13.3.1Zm6.7-4.9c5.5 0 9.6-4.5 9.6-9.9 0-5.6-4.1-9.8-9.6-9.8a9.5 9.5 0 0 0-9.6 9.8 9.6 9.6 0 0 0 9.6 9.9Zm37 6c-4.4.1-8.7-1.3-12-4.4a16 16 0 0 1-2-20.4c3-4.6 8.5-7.1 14-7 4.8-.2 9.5 1.8 12.6 5.4l-4.6 4.3a10.2 10.2 0 0 0-11.7-2.9 9.7 9.7 0 0 0-5.9 9.1c0 4 2.3 7.7 6 9.1 4 1.6 9 .6 11.6-2.9l4.6 4.3c-3 3.7-8 5.5-12.7 5.5l.1-.1Zm23.6-25.6H307V.5h26.7v5.8h-9.8v25h-7.2v-25ZM352.4 32c-7.8 0-15-4.9-16.7-12.8a16 16 0 0 1 4.6-14.5c3.3-3 7.6-4.6 12.1-4.6 5.5 0 10.8 2.4 14 7 1.8 2.6 2.7 5.8 2.7 9 0 9-7.8 16-16.7 15.9Zm3.7-6.8A9.8 9.8 0 0 0 362 16c0-7.7-8.5-12.6-15-8.3a9.2 9.2 0 0 0-3.6 4.4c-1.4 3.6-.8 8.3 2 11 2.8 2.8 7.1 3.4 10.7 2.1Zm18.6 6.2V.5H389c5.1 0 11.4 1.9 11.4 8a7 7 0 0 1-2.8 5.9c-1.9 1.4-4.4 2-7.5 2l.8-1.8c3.8 0 8.4.9 10.3 4.6a8 8 0 0 1-2.4 9.8c-2 1.6-5 2.3-9 2.3h-15.1v.1Zm7-5.3h8c2.7 0 4.9-1 4.9-4 0-2.7-2.6-4-5-3.8h-7.8V26l-.1.1Zm0-12.7h6.7c2.5 0 4.7-1 4.7-3.8 0-2.7-2.3-3.7-4.7-3.7h-6.6v7.5h-.1Zm22.3 18L417.7.5h7l13.8 30.8h-7.4l-9.9-23.9-9.9 23.9H404v.1Zm6.9-6.6 1.9-5.4h15.8l2 5.4h-19.7Zm41.8 2 11.9-11.2c1.7-1.5 3-3.4 3.2-5.7 0-4.2-5.6-4.4-8.5-3.1a7 7 0 0 0-2.8 2.4l-5.2-3.4c2.8-4 7.5-5.7 12.2-5.7 3.7 0 7.8 1 10 4.3 1.7 2.3 1.6 5 1.1 7.6-1 2.6-2.6 5-4.8 6.7L460 28l-1.4-2.6H476v5.8h-23.3v-4.4Z"/></svg>