<svg xmlns="http://www.w3.org/2000/svg" width="66" height="66" fill="none">
  <circle cx="33" cy="33" r="33" fill="#F5F5F5"/>
  <path fill="#4285F4" d="M53.2 33.5c0-1.5 0-3-.3-4.3H33v8.1h11.3c-.5 2.7-2 4.9-4.2 6.4V49H47c4-3.7 6.2-9.1 6.2-15.5Z"/>
  <path fill="#34A853" d="M33 54c5.7 0 10.5-1.8 14-5l-7-5.3c-1.9 1.2-4.3 2-7.1 2-5.5 0-10.1-3.7-11.8-8.7h-7v5.5A21 21 0 0 0 33 54Z"/>
  <path fill="#FBBC05" d="M21.2 37a12.6 12.6 0 0 1 0-8v-5.4h-7a20.8 20.8 0 0 0 0 18.8l5.4-4.2 1.6-1.2Z"/>
  <path fill="#EA4335" d="M33 20.3c3.1 0 5.9 1 8 3.2l6.1-6a21 21 0 0 0-33 6.1l7 5.4c1.8-5 6.4-8.7 11.9-8.7Z"/>
</svg>