<svg xmlns="http://www.w3.org/2000/svg" width="51" height="42" fill="none">
  <path fill="currentColor" d="M0 25.7h3.7L8 32.3l4-6.6h3.8v15.6h-3.4V31L8 37.7h-.1l-4.4-6.6v10H0V25.8Zm19 7.8c0-4.3 3.3-7.8 8-7.8 2.8 0 4.4 1.1 5.8 2.5l-2 2.3c-1.2-1-2.2-1.7-4-1.7-2.5 0-4.3 2.1-4.3 4.7s1.8 4.7 4.4 4.7c1.7 0 2.8-.7 4-1.8l2.1 2.3a7.7 7.7 0 0 1-6.2 2.5 7.6 7.6 0 0 1-7.8-7.7Zm17.3-7.8h3.5v6.8l6.3-6.8h4.2L44 32.3l6.7 9h-4.1l-5-6.7-1.7 1.9v4.8h-3.5V25.7Z"/>
  <path fill="#EE1D23" d="M3.7 22.4h3.5L5.8 18l-2.1 4.6ZM1.4 18l1.1 4.4v.1h.1l2.6-5.7L1.4 18ZM9 22.4h5.9L12.3 17 9 22.5Zm8 0h7.1L20.7 17 17 22.4Zm7.8-16.7-5.2 3.1 5.2 1V5.7ZM4.3 11a24.5 24.5 0 0 0-3 6l4-1.3-1-4.7Zm20.5-6.7V.9l-5.3 2.6 5.3.8ZM0 22.4h1.5L.6 19c-.3 1-.5 2.3-.6 3.4ZM24.4 0c-2.1 0-4.1.4-6 1v2l6-3Zm-7 1.3c-1.6.5-3.2 1.2-4.6 2h4.6v-2Zm-6.6 3.2a26 26 0 0 0-5.3 5l5.4-1v-4Zm1 10.8-.7-5.2-4 5.4 4.7-.2Zm4.6-11h-4.6v3.6l4.6-3.6Zm-3.7 10.4 4.5-5.2-5.2-.2.7 5.4Zm11.7-4-5.5-1 2 5.4 3.5-4.4Zm-11.3 5.6 2.8 6 4-5.8-6.8-.2Zm6.9-.7-2-5.5-4.5 5.2 6.5.3Zm-9.7-6-5 1 .8 4.7 4.2-5.8Zm8.3-1.3L23.9 5l-5.4-.8v4Zm-1 .2-.1-3.8-4.6 3.7 4.7.1Zm-11.1 8h-.1L8 22l3.4-5.6-5 .2Zm18.8 6 3.7-6-3.7.1h-3.7l3.7 5.8Zm18 0H47l-2-4.6-1.6 4.6Zm2.1-5.7 2.6 5.6v.1l1.2-4.5-3.8-1.2Zm-9.7 5.6h6L38.2 17l-2.6 5.6Zm-9.2 0h7L30 17l-3.4 5.4Zm-.7-12.6 5.2-1-5.2-3.1v4.1ZM46.3 11l-.9 4.8 4 1.3a27 27 0 0 0-3.1-6.1ZM31 3.5 25.8 1v3.4l5.3-.8ZM50 19l-1 3.4h1.6c-.1-1.1-.3-2.3-.6-3.4ZM32.3 1c-2-.6-4-1-6-1l5.9 3V1Zm1 .3-.1 2h4.6c-1.4-.8-3-1.5-4.6-2Zm6.5 3.2v4l5.4 1a28.4 28.4 0 0 0-5.4-5Zm3.6 11L39.5 10l-.7 5.2 4.6.2Zm-4.7-7.6.1-3.6h-4.6l4.5 3.6Zm-.8 6.8.7-5.4-5.2.2 4.5 5.2Zm-6.2-5-5.5 1 3.5 4.4 2-5.4Zm-1 6.8 4 5.9 2.8-6.1-6.7.2Zm6.5-1.2-4.6-5.2-2 5.5 6.6-.3Zm7.3 0 .9-4.8-5-1 4.1 5.8Zm-12.4-11-5.4.8L32 8.3l.1-4Zm1 .4v3.8l4.6-.1-4.6-3.7Zm11 11.8-5-.2 3.4 5.6 1.7-5.4Zm-18.8-5.3-3.6 4.4H29l-3.6-4.4Z"/>
</svg>