<svg xmlns="http://www.w3.org/2000/svg" width="63" height="63" fill="none">
  <circle cx="31.5" cy="31.5" r="31.5" fill="#F70"/>
  <path fill="#fff" d="M39 27.3a10.6 10.6 0 0 1-18-5.5A10.7 10.7 0 0 1 31.4 9 10.7 10.7 0 0 1 39 27.3Zm-7.6-12.5a4.9 4.9 0 0 0 0 9.8 4.9 4.9 0 0 0 0-9.8Zm11.2 15.7 3.1 4.3c.2.2.2.5 0 .6a21.9 21.9 0 0 1-8.9 4.4l6 11.7a.5.5 0 0 1-.4.7h-6.5a.5.5 0 0 1-.4-.3l-4-9.6-4.1 9.6a.5.5 0 0 1-.5.3h-6.4c-.4 0-.6-.4-.5-.7l6-11.7c-3.1-.8-6.2-2.2-8.8-4.4a.5.5 0 0 1-.1-.6l3.1-4.3a.5.5 0 0 1 .8-.1c2.8 2.6 6.6 4 10.4 4.2 3.9 0 7.5-1.7 10.5-4.2.2-.2.5-.2.7 0Z"/>
</svg>