<svg xmlns="http://www.w3.org/2000/svg" width="152" height="120" fill="none">
  <path fill="#D50019" d="M137.5 7.2 97.9 0l-22 16.5L53.9 0 13.8 7.2 0 42.4l20.4 42.9L45 104l30.8 15.9 30.3-16 25.2-18.7 19.8-42.9-13.7-35.1Z"/>
  <path fill="#D60819" d="m122.7 44.5-46.8-28 2.2 55L122.7 44v.5Z"/>
  <path fill="#DE5056" d="m78.1 71.5-2.2-55-28.6 19.3L78.1 71v.5Z"/>
  <path fill="#D92C33" d="m97.9 0-22 16.5L122.7 44 97.9 0Z"/>
  <path fill="#D5001C" d="M137.5 7.2 97.9 0l24.8 44.5 14.8-37.4Z"/>
  <path fill="#BC0017" d="m78.1 71.5 28 33 25.3-19.3-22.5-5.5L78.1 71v.6Z"/>
  <path fill="#D4001C" d="M151.3 42.4 137.4 7l-14.7 37 28.5-2.2v.6Z"/>
  <path fill="#CF0019" d="m78.1 71.5 30.8 8.3 22 5.5-7.7-41.3-45.1 27.5Z"/>
  <path fill="#CC0017" d="m131.4 85.3 19.8-43-28.5 2.3 8.7 40.6Z"/>
  <path fill="#DD4B4D" d="M53.4 0 13.8 7.2l33.5 28.6 6-35.8Z"/>
  <path fill="#C70016" d="m45.1 104.5 30.8 15.4 2.2-49-33 33v.6Z"/>
  <path fill="#D50019" d="M47.3 35.8 45.1 104l33-33-30.8-35.3Z"/>
  <path fill="#96000E" d="m78.1 71.5-2.2 48.4 30.3-16L78 71v.6Z"/>
  <path fill="#DD4B4D" d="m0 42.4 20.4 42.9 27.5-49.5L0 42.4Z"/>
  <path fill="#D60F1A" d="M20.4 85.3 45 104l2.2-68.3-27.5 49.5h.6Z"/>
  <path fill="#E5767D" d="M13.8 7.2 0 42.4l47.3-6.6-33-28.6h-.6Z"/>
  <path fill="#D4001C" d="M75.9 16.5 53.9 0l-6.6 35.8 28.6-19.3Z"/>
</svg>
