<svg width="88" height="88" fill="none"
  xmlns="http://www.w3.org/2000/svg">
  <path fill-rule="evenodd" clip-rule="evenodd" d="M22.104 80.408v.006h.007a6.7 6.7 0 0 0 1.963 4.746 6.708 6.708 0 0 0 4.758 1.973v.007h.006v-.007a6.7 6.7 0 0 0 4.746-1.963 6.709 6.709 0 0 0 1.946-4.159h19.364c.041.285.11.566.207.84.108.312.25.61.424.89s.384.546.632.794v.007l.002.001a4.487 4.487 0 0 0 4.66 1.06c.312-.109.61-.251.89-.425a4.5 4.5 0 0 0 .793-.632h.008l.002-.002v-.007a4.48 4.48 0 0 0 1.057-4.653 4.412 4.412 0 0 0-.68-1.258l13.675-13.675-.122-.123a6.705 6.705 0 0 0 4.43 1.665v.007h.005v-.007a6.697 6.697 0 0 0 4.746-1.964 6.707 6.707 0 0 0 1.972-4.758h.008v-.005h-.007a6.697 6.697 0 0 0-1.964-4.747 6.709 6.709 0 0 0-4.175-1.947h.029V32.708c.28-.042.557-.11.827-.205.312-.108.61-.25.89-.424.288-.18.554-.392.794-.632h.008l.001-.002a4.487 4.487 0 0 0 1.058-4.66 4.476 4.476 0 0 0-.424-.89 4.498 4.498 0 0 0-.632-.794v-.007l-.002-.002a4.487 4.487 0 0 0-4.66-1.058 4.455 4.455 0 0 0-1.25.675L64.418 11.03l-.097.096a6.707 6.707 0 0 0 1.634-4.394h.008v-.006h-.008a6.699 6.699 0 0 0-1.964-4.746A6.709 6.709 0 0 0 59.234.009V0h-.006V.01a6.698 6.698 0 0 0-4.746 1.963h-.008a6.703 6.703 0 0 0-1.94 4.176h-19.36a4.466 4.466 0 0 0-1.27-2.537V3.602l-.004-.003h-.008a4.466 4.466 0 0 0-6.324.001h-.007l-.002.002-.003.003v.007a4.465 4.465 0 0 0-.378 5.895l-13.69 13.69a6.7 6.7 0 0 0-4.293-1.549v-.007H7.19v.008a6.697 6.697 0 0 0-4.746 1.963A6.706 6.706 0 0 0 .472 28.37H.464v.006h.008a6.7 6.7 0 0 0 1.963 4.746v.008a6.71 6.71 0 0 0 4.167 1.94h-.01v19.362a4.464 4.464 0 0 0-2.52 1.267h-.007l-.001.001-.003.004v.008a4.466 4.466 0 0 0 .001 6.324v.008l.002.001.003.004h.008a4.464 4.464 0 0 0 5.896.376L23.645 76.1l.22-.22a6.707 6.707 0 0 0-1.754 4.528h-.007ZM80.26 52.072V32.72a4.477 4.477 0 0 1-2.598-1.275h-.008l-.002-.002v-.007a4.488 4.488 0 0 1-.632-.793l-.014-.022-.02-.033a3.56 3.56 0 0 1-.031-.053l-4.813 2.007c.21.658.316 1.346.315 2.038h.007v.006h-.007a6.704 6.704 0 0 1-1.963 4.746v.008a6.705 6.705 0 0 1-2.48 1.571V48.7c.322.19.619.421.884.687h.008l.002.002.003.003v.008a4.465 4.465 0 0 1 1.171 4.27l4.825 1.99a6.71 6.71 0 0 1 1.208-1.648h.007a6.7 6.7 0 0 1 4.163-1.94h-.025Zm-8.592-20.656 4.822-2.01a4.48 4.48 0 0 1 .746-3.823L63.55 11.898l.075-.076a6.7 6.7 0 0 1-4.39 1.632v.007h-.005v-.007c-.674 0-1.342-.1-1.983-.298l-2.002 4.814a4.35 4.35 0 0 1 .943.721h.008l.001.002v.007a4.479 4.479 0 0 1 1.169 4.288l5.507 5.508a6.71 6.71 0 0 1 2.859-.637v-.007h.006v.007a6.699 6.699 0 0 1 4.746 1.963c.472.47.87 1.009 1.183 1.595Zm-19.64-13.922a4.478 4.478 0 0 1 2.082.023l2.008-4.826a6.71 6.71 0 0 1-1.645-1.21 6.7 6.7 0 0 1-1.934-4.107H33.178a4.465 4.465 0 0 1-1.271 2.562v.008l-.004.003-.002.001h-.007c-.27.27-.572.505-.9.698l2.007 4.816a6.714 6.714 0 0 1 2.042-.316v-.007h.005v.007a6.701 6.701 0 0 1 4.747 1.964 6.711 6.711 0 0 1 1.584 2.501h7.763l.07-.115a4.5 4.5 0 0 1 .632-.793v-.008l.002-.002h.008a4.478 4.478 0 0 1 2.174-1.2Zm-3.383 5.375a4.488 4.488 0 0 1 .011-2.032h-6.968c.053.34.08.685.08 1.03h.007v.006h-.008a6.7 6.7 0 0 1-1.963 4.747 6.712 6.712 0 0 1-1.654 1.214l2.15 5.16a11.177 11.177 0 0 1 3.729-.633v-.008h.006v.008c1.262-.002 2.514.21 3.703.624l2.997-7.252a4.521 4.521 0 0 1-.88-.685h-.008l-.001-.002a4.487 4.487 0 0 1-1.2-2.177Zm-12.542 12.77c.893-.894 1.93-1.63 3.067-2.176l-2.153-5.165a6.714 6.714 0 0 1-1.97.294v.008h-.006v-.008a6.702 6.702 0 0 1-4.747-1.964h-.007a6.713 6.713 0 0 1-.675-.788l-4.926 4.925c.293.182.565.397.81.643h.007l.002.001.003.003v.008a4.468 4.468 0 0 1 1.16 4.313l7.241 3.01a11.176 11.176 0 0 1 2.194-3.104Zm-9.91 1.221 7.251 3.014a11.179 11.179 0 0 0-.62 3.695h-.008v.005h.008a11.178 11.178 0 0 0 .63 3.722l-5.16 2.153a6.712 6.712 0 0 0-1.212-1.649 6.698 6.698 0 0 0-4.746-1.963v-.008h-.006v.008c-.348 0-.695.026-1.038.08v-6.972a4.468 4.468 0 0 0 4.202-1.188h.008l.003-.003.001-.001v-.008c.266-.266.497-.563.688-.885Zm9.909 14.64a11.178 11.178 0 0 1-2.18-3.075l-5.164 2.154c.197.64.297 1.307.297 1.979h.007v.006h-.007a6.702 6.702 0 0 1-1.963 4.746v.008c-.25.25-.52.48-.805.686l4.928 4.927.02-.03c.172-.279.383-.545.631-.793V62.099l.001-.001.004-.003h.008a4.476 4.476 0 0 1 4.325-1.159l2.993-7.245a11.175 11.175 0 0 1-3.095-2.19Zm7.93 3.28a11.178 11.178 0 0 1-3.703-.624l-2.997 7.255-.008-.003c.323.19.62.422.887.689H38.22a4.483 4.483 0 0 1 1.181 4.245h6.984a6.712 6.712 0 0 1-.085-1.069h-.008v-.005h.008a6.703 6.703 0 0 1 1.963-4.754l.004.004a6.708 6.708 0 0 1 1.93-1.349l-.287.12-2.143-5.143a11.176 11.176 0 0 1-3.73.634v.008h-.006v-.008Zm7.008 4.04-2.143-5.143a11.174 11.174 0 0 0 3.066-2.175 11.178 11.178 0 0 0 2.2-3.118l7.237 3.02a4.473 4.473 0 0 0 1.159 4.317v.008l.003.003.001.001H62.572c.249.25.525.468.823.652l-4.933 4.933a6.703 6.703 0 0 0-5.436-2.77v-.007h-.006v.008a6.71 6.71 0 0 0-2.329.415l.35-.145Zm10.835-8.543-7.248-3.025c.41-1.182.618-2.425.616-3.68h.007v-.005h-.007a11.176 11.176 0 0 0-.624-3.701l5.164-2.154c.315.6.72 1.149 1.201 1.629a6.699 6.699 0 0 0 4.747 1.964v.007h.005v-.007c.353 0 .705-.027 1.052-.081V48.2a4.47 4.47 0 0 0-4.215 1.185h-.007l-.004.003h-.002v.009c-.27.27-.498.567-.685.88Zm-2.56-13.694-5.161 2.153a11.178 11.178 0 0 0-2.19-3.096 11.179 11.179 0 0 0-3.094-2.189l2.993-7.247a4.486 4.486 0 0 0 4.335-1.158l.002-.002v-.007c.25-.25.47-.528.653-.829l4.932 4.932a6.698 6.698 0 0 0-2.773 5.438h-.008v.006h.008c0 .679.102 1.353.303 2ZM10.831 61.552a4.468 4.468 0 0 0 .75-3.795l4.827-2.013a6.71 6.71 0 0 0 1.173 1.574 6.697 6.697 0 0 0 4.746 1.964v.007h.007v-.007a6.708 6.708 0 0 0 2.863-.635L30.7 64.15a4.476 4.476 0 0 0 1.167 4.29v.007l.002.002h.008a4.513 4.513 0 0 0 .945.722l-1.996 4.8.187.078a6.71 6.71 0 0 0-2.177-.362v-.007h-.006v.007a6.697 6.697 0 0 0-4.524 1.751l.205-.205-13.68-13.681Zm5.1-6.933-4.813 2.008a4.469 4.469 0 0 0-.707-.917v-.008l-.001-.002-.004-.003h-.008a4.467 4.467 0 0 0-2.58-1.274V35.07h-.037a6.701 6.701 0 0 0 4.163-1.938 6.705 6.705 0 0 0 1.208-1.642l4.83 1.994a4.468 4.468 0 0 0 1.175 4.26v.007l.003.004.002.002h.007c.27.269.57.502.897.694v7.778a6.69 6.69 0 0 0-2.493 1.581 6.701 6.701 0 0 0-1.964 4.747h-.008v.005h.008c0 .7.108 1.394.321 2.058Zm2.512-22.268a4.47 4.47 0 0 1 .715-.932v-.01h.002l.004-.002h.007a4.468 4.468 0 0 1 4.304-1.164l5.49-5.491a6.707 6.707 0 0 1-.643-2.881h-.008v-.006h.008a6.702 6.702 0 0 1 1.963-4.747 6.713 6.713 0 0 1 1.589-1.18l-2.01-4.822a4.466 4.466 0 0 1-3.812-.749L12.357 24.062a6.7 6.7 0 0 1 1.56 4.305h.007v.006h-.008c0 .674-.1 1.344-.299 1.986l4.826 1.992Zm28.26 35.218a6.711 6.711 0 0 0 1.57 2.463 6.704 6.704 0 0 0 4.746 1.963v.007h.004v-.007a6.714 6.714 0 0 0 2.032-.311l2.006 4.813-.1.06a4.518 4.518 0 0 0-.793.633h-.007l-.002.002a4.488 4.488 0 0 0-1.275 2.593H35.529a6.701 6.701 0 0 0-1.936-4.125 6.712 6.712 0 0 0-1.806-1.291l.167.069 2.003-4.814a4.482 4.482 0 0 0 4.255-1.177h.008l.002-.002v-.008a4.475 4.475 0 0 0 .679-.868h7.802Zm9.48 3.642a6.71 6.71 0 0 0 1.598-1.181v-.008a6.699 6.699 0 0 0 1.964-4.746h.008v-.006h-.008a6.71 6.71 0 0 0-.639-2.863l5.505-5.505a4.47 4.47 0 0 0 4.286-1.167h.007l.004-.003.001-.002v-.007c.277-.276.516-.586.71-.923l4.825 1.99a6.708 6.708 0 0 0-.294 1.979h-.007v.005h.007a6.7 6.7 0 0 0 1.663 4.425l-.116-.115-13.683 13.684a4.479 4.479 0 0 0-3.822-.739l-2.008-4.818Z" fill="#00b300"/>
</svg>
