<svg xmlns="http://www.w3.org/2000/svg" viewBox="0 0 240 240">
  <circle cx="120" cy="120" r="120" fill="#1d93d2"/>
  <path fill="#c8daea" d="m81.2 128.8 14.3 39.4s1.7 3.7 3.7 3.7 30.2-29.5 30.2-29.5l31.5-61-79.2 37.2Z"/>
  <path fill="#a9c6d8" d="m100.1 138.9-2.7 29s-1.2 9 7.7 0 17.4-15.7 17.4-15.7"/>
  <path fill="#fff" d="m81.5 130.2-29.3-9.6s-3.5-1.4-2.4-4.6c.3-.7.7-1.2 2.1-2.2C58.4 109.3 172 68.4 172 68.4s3.2-1 5.1-.3a2.8 2.8 0 0 1 2 2 9.4 9.4 0 0 1 .2 2.6l-.2 2.6c-.7 11.1-21.4 94.4-21.4 94.4s-1.2 5-5.7 5a8.1 8.1 0 0 1-5.9-2.2 797.1 797.1 0 0 0-45.5-32.2 1.3 1.3 0 0 1-.5-.9c-.1-.4.4-1 .4-1s52.4-46.6 53.8-51.5c.1-.4-.3-.6-.8-.4C150 87.8 89.6 125.9 83 130a3.2 3.2 0 0 1-1.5 0Z"/>
</svg>