<svg width="94" height="81" fill="none" xmlns="http://www.w3.org/2000/svg"><path fill-rule="evenodd" clip-rule="evenodd" d="m93.433 2.183-5.644 23.122-1.39-1.506s-4.958 4.1-17.255 15.75c-9.227 8.742-18.365 17.237-20.29 19.056-6.316 5.967-9.505 6.058-14.79.421-2.071-2.209-2.496-2.307-4.427-1.025-1.175.78-2.765 2.365-3.533 3.522-1.235 1.86-1.168 2.332.587 4.087 2.942 2.942 12.06 4.565 18.22 3.244 10.672-2.289 19.395-10.889 21.38-21.08.48-2.467 2.216-4.897 5.873-8.225l5.19-4.724.755 3.576c1.04 4.924-.705 14.735-3.702 20.81-4.591 9.307-12.116 15.917-22.282 19.574-12.606 4.535-28.76 1.151-38.432-8.05-1.795-1.708-2.88-2.998-3.955-4.274a57.222 57.222 0 0 0-2.157-2.46c8.198-7.556 16.746-14.563 25.23-21.787 2.439 3.3 4.613 5.383 7.722 8.05l52.9-48.081Z" fill="#B62F2F"/><path fill-rule="evenodd" clip-rule="evenodd" d="M68.547 4.088 92.354.836C83.33 8.67 40.16 46.99 40.16 46.99l-7.72-8.071c-1.01.909-9.881 8.652-16.76 14.663-3.782 3.304-7.337 6.41-9.439 8.25-1.291-1.813-3.074-5.268-4.365-10.039-4.685-17.309 4.456-36.706 20.778-44.72 10.853-5.331 28.836-4.691 39.41 3.793l-.42.413c-1.684 1.66-6.589 6.494-7.704 6.494-.463 0-2.545-.71-4.626-1.58-4.552-1.903-12.452-2.153-18.071-.574-5.602 1.575-13.163 8.471-16.024 14.616-2.185 4.691-3.101 9.538-1.803 9.538.309 0 4.137-3.15 8.506-7 4.369-3.85 8.779-7 9.8-7 1.02 0 3.555 1.35 5.63 3 2.077 1.65 4.605 3 4.605 3L70.29 6.34 69.05 4.714l-.502-.626Z" fill="#2F4EBB"/></svg>