<svg width="300" height="300" viewBox="0 0 300 300" fill="none"
  xmlns="http://www.w3.org/2000/svg">
  <path d="M209.214 98.2552C209.083 72.3358 191.011 52.9955 165.815 48.5992C147.193 45.3529 127.345 46.0377 107.872 46.7095C99.8988 46.9846 91.9882 47.2575 84.2505 47.2575V123.397C84.2505 126.62 84.2501 129.717 84.2497 132.694C84.2457 163.612 84.2434 181.547 84.7097 192.899C86.3548 232.941 116.398 253.86 153.991 253.852C190.151 253.843 213.736 230.001 215.635 191.533C216.736 169.234 209.875 149.334 196.592 131.742C205.011 122.154 209.279 111.201 209.214 98.2552ZM127.112 182.902C126.813 176.158 126.652 164.146 126.382 141.428L125.81 93.4606H140.8C157.432 93.4606 159.955 94.0246 163.804 98.5978C168.774 104.505 167.315 111.64 159.708 118.619C153.699 124.132 145.375 127.831 137.428 129.42V167.784C151.043 166.443 169.522 166.67 174.065 182.902C177.751 196.063 167.205 208.096 154.566 208.096C140.153 208.096 127.777 197.89 127.112 182.902Z" fill="#103A51"/>
</svg>
