<svg width="236" height="236" fill="none" xmlns="http://www.w3.org/2000/svg"><path d="M118.08 235.75c64.83 0 117.38-52.77 117.38-117.87S182.91 0 118.08 0 .71 52.77.71 117.88c0 65.11 52.55 117.87 117.37 117.87Z" fill="#FFCA05"/><path d="M168.6 205.68c-39.86 23.1-83.09 27.24-110.7 13.4a117.444 117.444 0 0 0 119.115.745A117.44 117.44 0 0 0 235.51 116.06c-1.87 31-27.07 66.52-66.91 89.62ZM132.98 8.62c8.08 14-11.45 40.57-43.64 59.21s-64.81 22.39-72.9 8.32a12.103 12.103 0 0 1-.88-2.15c-2.1-6.54.41-15 6.44-23.92 1-1.39 2-2.77 3-4.12a117.76 117.76 0 0 1 77.66-45c1.73-.25 3.41-.43 5-.55 10.7-.8 19.24 1.26 23.84 6.34.541.584 1.036 1.21 1.48 1.87Z" fill="#000"/><path d="M182.88 23.83c14.11 24.54-14.37 67.56-63.59 96.1-49.22 28.54-100.57 31.79-114.67 7.25a30 30 0 0 1-3.84-13.54 117.071 117.071 0 0 0 8.78 49.18c1 2.38 2 4.73 3.19 7.06l.16.3a45.714 45.714 0 0 0 18.41 17.41c27.62 14.84 74.31 9.74 118-15.58s71.39-63.35 72.42-94.78a45.998 45.998 0 0 0-5.76-24.61c-1.6-2.4-3.26-4.75-5-7a116.751 116.751 0 0 0-37.66-31.79 29.693 29.693 0 0 1 9.54 10h.02Z" fill="#000"/><path d="M118.32 235.75c65 0 117.62-52.77 117.62-117.87S183.32 0 118.32 0 .71 52.77.71 117.88c0 65.11 52.66 117.87 117.61 117.87Z" fill="url(#a)"/><defs><radialGradient id="a" cx="0" cy="0" r="1" gradientUnits="userSpaceOnUse" gradientTransform="matrix(117.608 0 0 117.913 118.418 116.076)"><stop offset=".5" stop-color="#fff" stop-opacity="0"/><stop offset="1" stop-color="#fff" stop-opacity=".35"/></radialGradient></defs></svg>