<svg width="183" height="65" fill="none" xmlns="http://www.w3.org/2000/svg"><path d="m.79 55.145 28.5-48.546c2.2-3.743 7.62-3.743 9.82 0l28.493 48.54c2.224 3.785-.51 8.554-4.91 8.554H5.7c-4.393.006-7.134-4.762-4.91-8.548ZM93.356.005C80.42-.214 69.177 7.139 63.775 17.914a9.418 9.418 0 0 0 .31 9.003L84.74 62.104a4.88 4.88 0 0 0 3.512 2.353c1.489.213 3.008.322 4.551.322 17.872 0 32.365-14.427 32.444-32.244.073-17.636-14.238-32.24-31.89-32.53ZM175.094 1.078h-44.032c-2.783 0-4.387 3.137-2.764 5.394 5.305 7.377 8.416 16.41 8.373 26.11-.042 9.568-3.123 18.432-8.319 25.694-1.628 2.268-.036 5.423 2.759 5.423h43.983c3.969 0 7.189-3.21 7.189-7.177V8.255a7.19 7.19 0 0 0-7.189-7.177Z" fill="#FF312C"/></svg>