<svg viewBox="0 0 65 56" fill="none" xmlns="http://www.w3.org/2000/svg">
  <path d="M6.98291 32.247H10.7079L14.8379 38.817L18.9679 32.247H22.6629V47.785H19.2559V37.645L14.8379 44.272H14.7509L10.3609 37.702V47.785H6.98391L6.98291 32.247ZM25.9849 40.016C25.9849 35.76 29.2469 32.246 33.8969 32.246C36.7549 32.246 38.3729 33.332 39.7589 34.703L37.7649 36.988C36.5809 35.932 35.5989 35.303 33.8669 35.303C31.2969 35.303 29.4769 37.417 29.4769 40.016C29.4769 42.586 31.2669 44.729 33.8669 44.729C35.5989 44.729 36.6669 44.043 37.8519 42.958L39.9889 45.214C38.4289 46.871 36.6969 47.756 33.7799 47.756C29.3039 47.785 25.9829 44.357 25.9829 40.016H25.9849ZM43.3099 32.247H46.7469V39.045L53.1289 32.247H57.2869L50.9049 38.845L57.5749 47.785H53.4459L48.5659 41.158L46.7459 43.015V47.785H43.3099V32.247Z" fill="#26282F"/>
  <path d="M10.6499 28.962H14.2299L12.7859 24.364L10.6499 28.962ZM8.39787 24.535L9.52287 28.962L9.55287 29.019L9.58087 28.962L12.1789 23.278L8.39787 24.535ZM15.9349 28.962H21.8829L19.3129 23.364L15.9339 28.962H15.9349ZM24.0489 28.962H31.1239L27.6589 23.507L24.0489 28.962ZM31.8169 12.196L26.5899 15.31L31.7879 16.338L31.8169 12.196ZM11.3129 17.509C10.007 19.3741 8.96737 21.412 8.22387 23.564L12.2079 22.25L11.3129 17.509ZM31.8169 10.797V7.36902L26.5039 10.026L31.8169 10.796V10.797ZM6.98187 28.962H8.51187L7.61687 25.506C7.32802 26.6425 7.11587 27.7971 6.98187 28.962ZM31.3549 6.51202C29.2749 6.59802 27.2549 6.91202 25.3199 7.48402L25.3769 9.51102L31.3549 6.51202ZM24.3379 7.79802C22.7508 8.3142 21.2215 8.99385 19.7749 9.82602H24.4249L24.3379 7.79802ZM17.8119 11.025C15.7959 12.4202 13.9873 14.0934 12.4399 15.995L17.8979 14.938L17.8119 11.025ZM18.7929 21.822L18.0709 16.652L14.1729 21.965L18.7929 21.822ZM23.3849 10.768H18.7949L18.8519 14.453L23.3849 10.768ZM19.6879 21.193L24.1929 15.995L18.9379 15.852L19.6879 21.193ZM31.3849 17.252L25.8979 16.166L27.8319 21.622L31.3849 17.252ZM20.1219 22.793L22.9219 28.877L26.7919 23.05L20.1219 22.793ZM26.9649 22.108L25.0019 16.566L20.4399 21.822L26.9649 22.108ZM17.2919 16.052L12.2089 17.023L13.1039 21.765L17.2919 16.052ZM25.5509 14.796L30.8639 11.626L25.4349 10.854L25.5509 14.796ZM24.5969 15.024L24.4529 11.168L19.8329 14.91L24.5969 15.024ZM13.4509 22.964L13.3929 23.021L13.3639 23.05L15.0969 28.42L18.5039 22.793L13.4509 22.964ZM32.2789 28.934L36.0039 23.107L32.2789 23.136L28.5539 23.107L32.2789 28.934ZM50.3279 28.962H53.9079L51.7999 24.364L50.3279 28.962ZM52.3779 23.278L54.9759 28.962L55.0049 29.019L55.0339 28.962L56.1599 24.535L52.3779 23.278ZM42.6749 28.962H48.6239L45.2739 23.364L42.6749 28.962ZM33.4349 28.962H40.5089L36.8989 23.507L33.4349 28.962ZM32.7699 16.338L37.9679 15.31L32.7699 12.196V16.338ZM53.2729 17.509L52.3779 22.279L56.3619 23.593C55.6006 21.4394 54.5628 19.3942 53.2729 17.509ZM38.0549 10.026L32.7409 7.36902V10.797L38.0549 10.026ZM56.9399 25.506L56.0449 28.962H57.5749C57.4549 27.795 57.2426 26.6394 56.9399 25.506ZM39.2389 7.48402C37.2714 6.927 35.2458 6.6008 33.2029 6.51202L39.1809 9.51202L39.2389 7.48402ZM40.2209 7.79802L40.1629 9.82602H44.8129C43.3535 8.99887 41.8152 8.3195 40.2209 7.79802ZM46.7469 11.025L46.6889 14.967L52.1469 16.024C50.5869 14.11 48.7969 12.424 46.7469 11.025ZM50.3849 21.965L46.5159 16.652L45.7659 21.822L50.3849 21.965ZM45.7069 14.453L45.7939 10.768H41.1739L45.7069 14.453ZM44.8699 21.193L45.6199 15.853L40.3649 15.995L44.8699 21.193ZM38.6609 16.166L33.1749 17.252L36.7269 21.622L38.6609 16.166ZM37.7659 23.05L41.6359 28.877L44.4659 22.793L37.7659 23.05ZM44.1479 21.822L39.5849 16.566L37.5919 22.108L44.1479 21.822ZM51.4829 21.765L52.3489 17.023L47.2949 16.053L51.4829 21.765ZM39.1239 10.854L33.7239 11.625L39.0079 14.795L39.1239 10.854ZM40.1049 11.168L39.9899 15.024L44.7259 14.91L40.1049 11.168ZM51.1649 23.021L51.1359 22.964L46.0539 22.793L49.4609 28.448L51.1939 23.05L51.1649 23.021ZM32.2789 17.68L28.6989 22.136L32.2789 22.164L35.8889 22.136L32.2789 17.68Z" fill="#EE1D23"/>
</svg>
