<svg width="30" viewBox="0 0 12 13" fill="none"
  xmlns="http://www.w3.org/2000/svg">
  <path d="M2.56 4.09s1.825.98 1.93 1.027c.105.047.247-.02.314-.172a98.569 98.569 0 0 1 1.093-2.054c.047-.076.085-.218.257-.143.171.076.39-.494.39-.494l-1.75-1.026-.866.114-1.435 2.596.066.152Zm-.087 4.478s2.548.029 2.701.029c.152 0 .294.038.314.238.019.2-.019 2.472-.019 2.472l-.98.01-1.454-.067-.78-.324-.609-1.416.827-.942ZM10.1 4.774 8.064 5.973c-.047.028-.105.123-.018.275.086.152 1.037 1.883 1.112 2.016.076.133.162.294.029.39-.134.094.2.438.2.438l.94-.105.638-.41.475-.789s-.085-.931-.105-.96c-.018-.028-.884-1.778-.884-1.778l-.351-.276Z" fill="#34700D"/>
  <path d="M7.073 4.184s-.99-1.53-1.31-1.891a6.23 6.23 0 0 0-.756-.709c-.214-.173-.37-.205-.556-.176-.292.046-.463.186-.627.466C3.33 2.713 2.56 4.09 2.56 4.09s-.27-.085-.275-.266C2.278 3.65 3.386 1.77 3.5 1.57c.114-.2.304-.457.826-.485.523-.028 3.262-.047 3.414-.018.152.029.504.171.827.665.37.566.604 1.067.604 1.067s.727-.43.803-.382c.114.07-1.013 2.28-1.103 2.357-.057.05-2.596.21-2.654.067-.036-.095.855-.657.855-.657Zm3.027.59s.134-.119.24-.086c.107.034 1.095 2.145 1.193 2.351.1.207.157.702-.148 1.197-.306.495-1.774 2.706-1.882 2.838-.106.133-.165.248-.462.248-.297 0-1.42-.017-1.42-.017s-.04.834-.049.908c-.008.074-.132.123-.215-.025-.082-.148-1.254-2.129-1.254-2.179 0-.05 1.147-2.316 1.313-2.294.119.017.106.916.106.916s2.583-.05 2.84-.065c.255-.017.503-.116.635-.313.132-.198.43-.669.206-1.155-.199-.434-.883-1.774-.981-1.973-.063-.125-.154-.256-.122-.35Zm-4.632 6.533c-.036.143-.149.147-.28.155-.133.009-1.915 0-2.303-.04a1.172 1.172 0 0 1-.9-.652c-.14-.322-.71-1.329-1.105-2.162C.485 7.774.394 7.535.368 7.345c-.025-.19.19-.668.404-1.015.215-.347.363-.562.363-.562s-.777-.512-.792-.61c-.01-.066.783-.09 1.46-.115C2.472 5.016 3.15 5 3.2 5.05c.05.05.404.784.61 1.205.206.42.627 1.196.619 1.27-.012.107-.121.053-.278-.013a20.078 20.078 0 0 1-.737-.367S2.762 8.26 2.506 8.78s-.503 1.023-.438 1.485c.04.28.38.776 1.007.842.627.067 2.021.025 2.187.033.165.01.24.037.206.167Z" fill="#7CB342"/>
</svg>
