<svg viewBox="0 0 484 634" fill="none"
  xmlns="http://www.w3.org/2000/svg">
  <path d="M180.155 570.518L56.506 570.42C24.105 564.846 3.07601 538.557 0.471008 506.293L0.36499 0.414001H483.043L482.819 507.749C477.15 542.471 459.663 564.784 426.902 570.42L302.929 570.518C260.472 571.029 252.394 598.829 241.704 633.634C232.186 598.827 227.848 570.518 180.154 570.518H180.155Z" fill="white"/>
  <path d="M467.864 17.058L467.762 505.637C463.528 530.603 451.051 549.385 425.052 554.054H303.468C281.973 552.935 263.277 558.807 249.45 575.333L249.451 17.058H467.864Z" fill="#CE1126"/>
  <path d="M15.327 17.058H233.741V575.333C219.914 558.807 201.219 552.935 179.723 554.054H58.139C32.687 549.484 19.554 529.962 15.429 505.637L15.327 17.058Z" fill="#3A75C4"/>
  <path d="M273.691 116.735C263.114 112.729 256.303 92.456 267.682 78.272C265.904 91.508 270.233 105.197 278.11 108.779L273.691 116.735Z" fill="white" stroke="black"/>
  <path d="M321.848 152.178C320.426 144.365 303.961 130.959 273.69 116.735L276.494 112.581C296.091 117.555 323.66 136.459 330.243 152.347L321.848 152.178Z" fill="white" stroke="black"/>
  <path d="M330.21 152.266C327.038 142.243 307.757 124.778 276.494 112.581L278.109 108.779C309.732 117.918 335.532 141.062 336.705 152.081L330.21 152.266ZM289.205 164.005L272.744 116.658L276.76 118.391L292.171 160.165L289.205 164.005ZM319.973 120.977C318.677 95.685 329.906 77.608 349.889 74.771C355.842 77.22 362.483 77.117 366.422 75.224C382.798 78.309 396.96 91.902 397.709 119.545L384.704 123.451C371.488 100.183 360.5 113.777 360.036 131.49L356.834 131.613C356.125 117.75 346.94 97.12 331.944 122.415L319.973 120.977Z" fill="white" stroke="black"/>
  <path d="M349.89 74.771L354.196 66.681L362.246 66.766L365.937 75.443C361.548 76.719 355.2 76.49 349.89 74.771ZM320.168 121.16L320.239 126.214L334.52 132.909C338.121 124.229 340.247 118.17 344.31 118.703C348.117 118.815 348.197 121.74 351.199 139.32L365.829 139.561C367.504 127.672 367.856 119.584 372.324 119.702C376.113 119.273 378.301 124.453 382.321 132.545L397.566 128.371V119.643L384.496 123.661C380.615 115.513 375.742 110.912 370.479 111.284C364.001 111.379 361.258 119.441 360.394 131.972H356.293C355.914 119.458 352.174 110.953 346.499 110.645C340.508 109.653 335.222 115.023 332.016 122.522L320.168 121.16Z" fill="white" stroke="black"/>
  <path d="M351.199 139.32L365.829 139.562L366.16 168.756C359.555 170.004 357.767 169.574 350.815 167.136L351.199 139.32ZM400.805 153.342L405.407 136.843L412.296 137.906L409.042 153.856L400.805 153.342Z" fill="white" stroke="black"/>
  <path d="M409.416 119.025C414.136 118.569 412.69 118.387 416.41 120.685L412.297 137.907L405.401 136.798L409.416 119.025ZM419.119 90.42L413.266 118.344L404.482 117.979L419.119 90.42Z" fill="white" stroke="black"/>
  <path d="M419.058 90.614L422.463 122.751L413.378 118.283L419.058 90.614ZM425.355 144.854L424.245 129.095L456.898 73.242L430.463 145.517L425.355 144.854ZM430.53 145.627L457.119 73.176L446.255 137.789L433.682 149.282L430.53 145.627Z" fill="white" stroke="black"/>
  <path d="M422.328 153.898L425.704 144.864L430.082 145.415L433.506 149.017L430.629 159.999L422.328 153.898ZM357.535 507.423L354.271 463.695L360.735 464.06L357.535 507.423Z" fill="white" stroke="black"/>
  <path d="M291.663 478.674L317.112 411.068L328.242 414.223L302.194 484.114L291.663 478.674ZM348.527 419.948L367.477 420.751L366.898 463.801L347.938 463.401L348.527 419.948ZM348.085 464.108L354.171 464.034L357.743 506.409L348.085 464.108Z" fill="white" stroke="black"/>
  <path d="M357.455 506.354L361.077 463.634L366.901 463.817L357.455 506.354ZM406.434 448.086L416.585 451.77C415.18 464.316 423.952 472.853 439.685 478.648C419.209 485.132 405.984 470.509 403.071 452.988L406.434 448.086Z" fill="white" stroke="black"/>
  <path d="M393.592 413.666L406.434 448.086L403.071 452.988L389.103 415.666L393.592 413.666ZM413.522 362.562L413.498 349.53C433.191 366.599 432.116 397.003 413.11 450.509L406.434 448.086C406.434 448.086 433.983 386.884 413.522 362.562Z" fill="white"/>
  <path d="M406.434 448.086L393.592 413.666L389.103 415.666L403.071 452.988L406.434 448.086ZM406.434 448.086L413.11 450.509C432.116 397.003 433.191 366.599 413.498 349.53L413.522 362.562C433.983 386.884 406.434 448.086 406.434 448.086Z" stroke="black"/>
  <path d="M413.109 450.508C435.931 384.164 426.903 364.062 412.027 348.612L411.51 338.355C429.895 352.347 443.001 388.102 416.585 451.77L413.109 450.508ZM36.475 507.158H206.715L185.595 301.078H57.595L36.475 507.158Z" fill="white" stroke="black"/>
  <path d="M422.319 154.65C428.508 157.486 432.621 161.879 434.656 167.83L442.645 318.43C442.886 328.843 422.94 336.14 412.211 330.196L405.171 212.585L415.144 410.45L399.532 410.817C376.091 423.475 351.027 425.228 320.834 411.011L306.11 411.23L313.273 211.512L305.808 332.913C285.773 333.271 279.189 327.755 278.368 318.246L286.698 169.302C288.51 163.785 292.432 158.69 299.436 154.213L336.705 152.081C348.092 175.915 374.002 174.293 385.869 152.434L422.319 154.65ZM60.824 148.757L60.795 115.157H75.195V131.157H81.595V115.157H101.435V131.157H108.475V115.157L134.715 115.1V131.157H141.755V115.157H161.595V131.157H167.995V115.157H182.395V148.757H60.824ZM71.355 163.158L60.795 148.758H182.395L172.155 162.838L71.355 163.158ZM171.835 163.158H71.355V255.958H171.835V163.158Z" fill="white"/>
  <path d="M71.355 163.158L60.795 148.758H182.395L172.155 162.838L71.355 163.158ZM71.355 163.158H171.835V255.958H71.355V163.158ZM422.319 154.65C428.508 157.486 432.621 161.879 434.656 167.83L442.645 318.43C442.886 328.843 422.94 336.14 412.211 330.196L405.171 212.585L415.144 410.45L399.532 410.817C376.091 423.475 351.027 425.228 320.834 411.011L306.11 411.23L313.273 211.512L305.808 332.913C285.773 333.271 279.189 327.755 278.368 318.246L286.698 169.302C288.51 163.785 292.432 158.69 299.436 154.213L336.705 152.081C348.092 175.915 374.002 174.293 385.869 152.434L422.319 154.65ZM60.824 148.757L60.795 115.157H75.195V131.157H81.595V115.157H101.435V131.157H108.475V115.157L134.715 115.1V131.157H141.755V115.157H161.595V131.157H167.995V115.157H182.395V148.757H60.824Z" stroke="black"/>
  <path d="M44.795 280.918V233.558H54.395V255.638H60.795V233.558H75.195V255.638H81.595V233.558H101.435V255.638H108.475V233.558H134.715V255.638H141.755V233.558H161.595V255.638H167.995V233.558H182.395V255.638H188.795V233.558H198.395V280.918H44.795Z" fill="white" stroke="black"/>
  <path d="M57.595 301.078L44.795 280.918H198.395L185.595 301.078H57.595ZM99.515 507.158V421.334C107.132 409.378 138.337 409.981 143.281 421.421L143.429 507.157H99.475L99.515 507.158Z" fill="white" stroke="black"/>
  <path d="M106.434 415.708L98.646 406.523C100.365 403.562 103.136 400.124 107.529 399.073L113.402 413.111L106.434 415.708ZM136.751 415.263L144.463 406.524C142.242 404.018 139.733 400.436 135.603 399.075L129.195 413.195L136.751 415.263Z" fill="white" stroke="black"/>
  <path d="M113.4 413.113L107.527 399.075C116.886 393.154 126.244 393.154 135.603 399.075L129.444 412.826L113.4 413.113ZM92.181 507.158L92.914 420.188C92.974 413.076 95.855 408.27 98.646 406.524L105.951 415.119L99.362 420.705L99.511 507.157L92.181 507.158ZM151.01 507.158L150.196 420.188C150.13 413.076 147.255 408.27 144.464 406.524L137.159 415.119L143.748 420.705L143.465 507.157L151.01 507.158ZM156.795 31.958H150.395V115.158H156.795V31.958ZM153.595 30.998C154.868 30.998 156.089 30.4923 156.989 29.5921C157.889 28.692 158.395 27.4711 158.395 26.198C158.395 24.925 157.889 23.7041 156.989 22.8039C156.089 21.9037 154.868 21.398 153.595 21.398C152.322 21.398 151.101 21.9037 150.201 22.8039C149.301 23.7041 148.795 24.925 148.795 26.198C148.795 27.4711 149.301 28.692 150.201 29.5921C151.101 30.4923 152.322 30.998 153.595 30.998Z" fill="white" stroke="black"/>
  <path d="M93.755 213.078V183.318C93.755 172.118 111.035 172.118 111.035 183.318V213.078H93.755ZM132.155 213.078V183.318C132.155 172.118 149.435 172.118 149.435 183.318V213.078H132.155ZM83.144 54.081C90.119 45.736 98.089 42.872 107.057 45.487C111.541 46.11 116.024 46.359 118.266 43.993C127.607 34.465 135.143 29.802 142.803 29.802C145.356 29.802 148.032 30.977 150.398 32.036L150.173 81.925C146.5 77.938 139.128 78.117 126.486 88.082C121.878 91.32 117.27 92.068 112.662 90.324C102.822 89.951 92.983 94.061 83.144 102.654V54.081Z" fill="white" stroke="black"/>
  <path d="M422.319 154.65C428.508 157.486 432.621 161.879 434.657 167.83L442.645 318.43C442.886 328.843 422.94 336.14 412.211 330.196L405.171 212.585L415.144 410.45L399.532 410.817C376.091 423.475 351.027 425.228 320.834 411.011L306.11 411.23L313.273 211.512L305.808 332.913C285.773 333.271 279.189 327.755 278.368 318.246L286.698 169.302C288.51 163.785 292.432 158.69 299.436 154.213L336.705 152.081C348.092 175.915 374.002 174.293 385.869 152.434L422.319 154.65Z" stroke="black"/>
  <path d="M422.319 154.65C428.508 157.486 432.621 161.879 434.657 167.83L442.645 318.43C442.886 328.843 422.94 336.14 412.211 330.196L405.171 212.585L415.144 410.45L399.532 410.817C376.091 423.475 351.027 425.228 320.834 411.011L306.11 411.23L313.273 211.512L305.808 332.913C285.773 333.271 279.189 327.755 278.368 318.246L286.698 169.302C288.51 163.785 292.432 158.69 299.436 154.213L336.705 152.081C348.092 175.915 374.002 174.293 385.869 152.434L422.319 154.65ZM36.475 507.158H206.715L185.595 301.078H57.595L36.475 507.158Z" stroke="black"/>
  <path d="M36.475 507.158H206.715L185.595 301.078H57.595L36.475 507.158ZM171.835 163.158H71.355V255.958H171.835V163.158Z" stroke="black"/>
  <path d="M171.835 163.158H71.355V255.958H171.835V163.158Z" stroke="black"/>
  <path d="M91.163 96.643C94.517 88.348 102.135 77.991 113.067 70.832C130.056 69.488 145.313 73.602 150.177 81.352L150.235 68.59C144.211 64.495 132.996 61.748 122.426 62.198C127.086 57.629 129.224 52.34 132.926 45.505C136.627 38.671 145.509 34.982 150.387 34.852L150.399 32.035C144.765 29.628 142.901 29.314 137.89 30.219C131.893 34.911 128.62 39.798 124.86 47.513C121.719 53.957 117.449 59.375 111.329 63.193C102.783 57.368 94.92 51.295 90.163 47.743C87.634 49.579 85.193 51.335 83.145 54.081V56.726C88.593 54.906 96.347 60.141 104.145 68.242C97.992 72.956 90.056 81.73 83.145 91.747V102.654L91.163 96.643Z" fill="#3A75C4" stroke="black"/>
</svg>
