<svg viewBox="0 0 69 57" xmlns="http://www.w3.org/2000/svg">
    <path
        d="M67.83 19.04a.93.93 0 0 0-.24.05L62.41 6.26a2.32 2.32 0 0 0 1.29-2.08 2.26 2.26 0 0 0-4.47-.49L45.16 1.33v-.07a1.23 1.23 0 1 0-2.45 0c.007.223.072.44.19.63l-7 5.31a2 2 0 0 0-1.51-.71 2 2 0 0 0-1.53.74l-7.24-5.36c.116-.182.179-.394.18-.61a1.23 1.23 0 1 0-2.45 0v.06l-7.48 1.13-7.45 1.4a1.15 1.15 0 0 0-1.825-.602A1.17 1.17 0 0 0 6.78 5.21L1.39 18.88a1.069 1.069 0 0 0-.31-.06 1.19 1.19 0 1 0 .38 2.3l3.87 8.41L9.1 37.8a1.67 1.67 0 0 0 .8 3.13 1.63 1.63 0 0 0 1.24-.58l9 6.78a1.17 1.17 0 0 0 1.99 1.23l10.49 5.5a2 2 0 0 0-.17.82 2 2 0 0 0 4 0 2.17 2.17 0 0 0-.16-.81l10.68-5.51a1.15 1.15 0 0 0 1 .55 1.171 1.171 0 0 0 1.16-1.19 1.14 1.14 0 0 0-.18-.6l8.78-6.76a1.62 1.62 0 0 0 1.864.44 1.659 1.659 0 0 0 1.016-1.54 1.68 1.68 0 0 0-.84-1.46l7.83-16.89c.09.035.184.055.28.06a1 1 0 0 0 0-1.93h-.05Zm-.47.15a.93.93 0 0 0-.47.78l-10.22 1a1.67 1.67 0 0 0-.92-1.24l1.14-3 3.86-10.29c.222.075.455.116.69.12a2.31 2.31 0 0 0 .74-.14l5.18 12.77Zm-10 19.52-19-5.13a3.17 3.17 0 0 0-.29-2.12l15.58-9.29a1.64 1.64 0 0 0 1.36.72h.22l3.17 14.79a1.62 1.62 0 0 0-1.08 1.02l.04.01ZM21.88 46.8a1.18 1.18 0 0 0-.55-.23v-1.12L22 19.53a2.34 2.34 0 0 0 1.41-.52l9.22 10.83.7.82a3.11 3.11 0 0 0-.13 4.36L21.88 46.8Zm11.67-16.3-9.92-11.65a2.43 2.43 0 0 0 .39-3l8.85-6.07a2 2 0 0 0 1.53.79l.79 19.3a3 3 0 0 0-1.64.62v.01Zm2.53-20.83 16.68 10.28.82.51c-.116.233-.177.49-.18.75.003.256.061.508.17.74l-15.25 9.09-.34.2a3 3 0 0 0-2.55-1.43l-.37-9.2-.42-10.09a2 2 0 0 0 1.44-.86v.01ZM59.2 3.93a2.424 2.424 0 0 0 0 .25 2.31 2.31 0 0 0 1.35 2.1l-4.23 11.29-.76 2a1.837 1.837 0 0 0-.47-.07 1.63 1.63 0 0 0-.7.16l-9.7-17.44a1.19 1.19 0 0 0 .46-.68L59.2 3.93ZM43.06 2.1a1.221 1.221 0 0 0 .89.4 1.3 1.3 0 0 0 .49-.1l.17.3 9.52 17.12a1.681 1.681 0 0 0-.42.42L36.2 9.44a1.999 1.999 0 0 0-.09-2.05l6.95-5.29ZM32.77 7.43a2 2 0 0 0-.32 1.09c.004.352.1.697.28 1l-4.5 3.06-4.35 3a2.39 2.39 0 0 0-1.38-.92l2.06-12.2h.08a1.17 1.17 0 0 0 .9-.42l7.23 5.39ZM15.99 2.69l7.48-1.13a1.23 1.23 0 0 0 .84.88l-2.06 12.22a2.862 2.862 0 0 0-.29 0 2.39 2.39 0 0 0-1.73.75L8.32 4.84c.14-.196.22-.429.23-.67v-.09l7.44-1.39ZM7.09 5.3c.1.037.204.061.31.07a1.17 1.17 0 0 0 .79-.32l11.88 10.52a2.48 2.48 0 0 0-.52 1.51v.21L2.32 19.71a1.17 1.17 0 0 0-.57-.75L7.09 5.3ZM5.64 29.43l-3.88-8.39a1.19 1.19 0 0 0 .57-1l17.28-2.43a2.41 2.41 0 0 0 1.1 1.62l-1.23 2.27-8.81 16.3a1.73 1.73 0 0 0-.68-.15c-.198 0-.395.038-.58.11l-3.77-8.33Zm5.73 10.72a1.68 1.68 0 0 0-.49-2.3l2.48-4.58 7.56-14c.27.132.561.214.86.24l-.52 19.93-.18 7.11a1.12 1.12 0 0 0-.76.36l-8.95-6.76Zm10.88 8a1.27 1.27 0 0 0 .09-.43 1.15 1.15 0 0 0-.28-.74l1-1 10.35-10.75a2.94 2.94 0 0 0 1.76.78l-.05 1.14-.71 15.54a2 2 0 0 0-1.67 1l-10.49-5.54Zm13.91 5.5a2 2 0 0 0-1.5-1l.76-16.61a3 3 0 0 0 1.87-.68l9.76 11.59a1.24 1.24 0 0 0-.32.81c0 .144.028.286.08.42l-10.65 5.47Zm12.6-6.74a1.11 1.11 0 0 0-1.49-.15l-9.77-11.6a3.1 3.1 0 0 0 .83-1.34l19 5.13a3.024 3.024 0 0 0 0 .31c0 .32.094.633.27.9l-8.84 6.75Zm10.74-9.22a1.669 1.669 0 0 0-.59-.11h-.23l-2-9.3-1.17-5.49a1.66 1.66 0 0 0 1.18-1.6l7.46-.71 2.77-.26a1 1 0 0 0 .4.58L59.5 37.69Z"
        fill="crimson" />
</svg>