<svg viewBox="0 0 209 165" fill="none"
    xmlns="http://www.w3.org/2000/svg">
    <path d="M188.86 9.855 134.65.445l-30.4 22.2-30.4-22.2-54.21 9.41L.48 58.015l27.76 58.69 34.37 25.97 41.64 21.44 41.64-21.44 34.37-25.97 27.76-58.69-19.16-48.16Z" fill="#D50019"/>
    <path d="m168.49 61.685-64.24-39.04 3.1 75.07 61.14-36.03Z" fill="#D60819"/>
    <path d="m107.35 97.715-3.1-75.07-38.64 26.47 41.74 48.6Z" fill="#DE5056"/>
    <path d="m134.65.445-30.4 22.2 64.24 39.04L134.65.445Z" fill="#D92C33"/>
    <path d="M188.86 9.855 134.65.445l33.84 61.24 20.37-51.83Z" fill="#D5001C"/>
    <path d="m107.35 97.715 38.54 44.96 34.37-25.97-30.58-7.58-42.33-11.41Z" fill="#BC0017"/>
    <path d="m208.02 58.015-19.16-48.16-20.37 51.83 39.53-3.67Z" fill="#D4001C"/>
    <path d="m107.35 97.715 42.33 11.41 30.58 7.58-11.77-55.02-61.14 36.03Z" fill="#CF0019"/>
    <path d="m180.26 116.705 27.76-58.69-39.53 3.67 11.77 55.02Z" fill="#CC0017"/>
    <path d="m73.85.445-54.21 9.41 45.97 39.26L73.85.445Z" fill="#DD4B4D"/>
    <path d="m62.61 142.675 41.64 21.44 3.1-66.4-44.74 44.96Z" fill="#C70016"/>
    <path d="m65.61 49.115-3 93.56 44.74-44.96-41.74-48.6Z" fill="#D50019"/>
    <path d="m107.35 97.715-3.1 66.4 41.64-21.44-38.54-44.96Z" fill="#96000E"/>
    <path d="m.48 58.015 27.76 58.69 37.37-67.59-65.13 8.9Z" fill="#DD4B4D"/>
    <path d="m28.24 116.705 34.37 25.97 3-93.56-37.37 67.59Z" fill="#D60F1A"/>
    <path d="M19.64 9.855.48 58.015l65.13-8.9-45.97-39.26Z" fill="#E5767D"/>
    <path d="M104.25 22.645 73.85.445l-8.24 48.67 38.64-26.47Z" fill="#D4001C"/>
</svg>